<?xml version="1.0" encoding="UTF-8"?>
<svg version="1.1" xmlns="http://www.w3.org/2000/svg" width="1536" height="1024">
<path d="M0 0 C506.88 0 1013.76 0 1536 0 C1536 337.92 1536 675.84 1536 1024 C1029.12 1024 522.24 1024 0 1024 C0 686.08 0 348.16 0 0 Z " fill="#171528" transform="translate(0,0)"/>
<path d="M0 0 C2.10298948 0.3527564 4.19762385 0.60060138 6.31738281 0.82861328 C9.86136827 1.31982276 12.76557085 2.16156631 16.12207031 3.35595703 C18.09077144 3.87530763 20.05968238 4.3939546 22.03149414 4.90136719 C46.20010979 11.22382378 69.38835174 21.97081242 89.12207031 37.35595703 C89.78851562 37.83935547 90.45496094 38.32275391 91.14160156 38.82080078 C95.95146657 42.52676235 99.41206228 47.40578743 103.07592773 52.19311523 C105.43999458 55.27115383 107.76174389 58.15315572 110.62207031 60.79345703 C117.17608731 66.98248034 122.31955286 75.06119002 127.22753906 82.58251953 C128.92285066 85.06431589 130.64202983 87.0410225 132.74707031 89.16845703 C142.79687503 100.34114496 148.96769859 114.40267421 154.12207031 128.35595703 C154.58355469 129.57669922 155.04503906 130.79744141 155.52050781 132.05517578 C159.16232163 142.26329028 161.24564507 152.70119449 163.12207031 163.35595703 C163.29641602 164.30784912 163.47076172 165.25974121 163.65039062 166.24047852 C164.48581232 171.75849933 164.51525896 177.28396505 164.62207031 182.85595703 C164.70328125 184.67160156 164.70328125 184.67160156 164.78613281 186.52392578 C164.91997849 195.21433456 164.91997849 195.21433456 162.59863281 198.53564453 C158.27611961 202.35595703 158.27611961 202.35595703 155.12207031 202.35595703 C154.98929688 201.12619141 154.85652344 199.89642578 154.71972656 198.62939453 C154.54142989 196.99657234 154.36303952 195.36376038 154.18457031 193.73095703 C154.09755859 192.92271484 154.01054688 192.11447266 153.92089844 191.28173828 C153.2629427 184.77973209 153.2629427 184.77973209 152.12207031 178.35595703 C151.46207031 178.02595703 150.80207031 177.69595703 150.12207031 177.35595703 C149.79722656 178.15646484 149.79722656 178.15646484 149.46582031 178.97314453 C147.63269838 182.22373865 145.16787098 184.78486689 142.62207031 187.48095703 C142.08163086 188.05644287 141.54119141 188.63192871 140.984375 189.22485352 C139.88255206 190.39363538 138.77807492 191.55992105 137.67089844 192.72363281 C136.32572573 194.14132271 134.9959196 195.57356265 133.66894531 197.00830078 C123.11463773 208.08314394 110.30960856 216.72262971 97.12207031 224.35595703 C96.33638672 224.81502441 95.55070312 225.2740918 94.74121094 225.74707031 C42.28007819 256.35595703 42.28007819 256.35595703 22.12207031 256.35595703 C22.12207031 255.69595703 22.12207031 255.03595703 22.12207031 254.35595703 C22.6837793 254.08033936 23.24548828 253.80472168 23.82421875 253.52075195 C58.28490048 236.56651594 91.73267168 217.54988275 120.49121094 191.81494141 C121.58424876 190.83709799 122.68197808 189.86447513 123.78417969 188.89697266 C130.18317733 183.27815761 136.21722464 177.41600041 141.87207031 171.04345703 C142.38592285 170.48094238 142.89977539 169.91842773 143.42919922 169.33886719 C146.76192181 165.4657031 147.93246414 162.61160318 148.12207031 157.35595703 C147.78692583 152.96556429 146.93279267 148.68145742 146.12207031 144.35595703 C145.97253906 143.40333984 145.82300781 142.45072266 145.66894531 141.46923828 C142.74826485 125.84359779 135.21169116 110.36249779 127.54711914 96.52856445 C125.1529325 92.05668944 124.52066357 88.33564271 124.12207031 83.35595703 C121.93602467 82.36483991 121.93602467 82.36483991 119.12207031 82.35595703 C116.82584222 84.0796508 114.9876805 85.70231352 112.99707031 87.73095703 C111.84190524 88.85321095 110.68431968 89.97297839 109.52441406 91.09033203 C108.95062012 91.64785156 108.37682617 92.20537109 107.78564453 92.77978516 C104.63103652 95.76865356 101.22881173 98.44441003 97.84082031 101.16064453 C95.03522645 103.42608096 92.30111693 105.76359165 89.55957031 108.10595703 C77.7152902 117.98641868 64.91223885 126.7019094 52.00390625 135.12451172 C50.08135623 136.38259972 48.16792319 137.65377741 46.25488281 138.92626953 C25.68948178 152.52229856 4.14198789 164.30224115 -17.87792969 175.35595703 C-18.81862305 175.83097656 -19.75931641 176.30599609 -20.72851562 176.79541016 C-48.87368646 190.92389967 -78.32989734 202.2639857 -108.01135254 212.69708252 C-110.9579878 213.7372018 -113.89781857 214.79625732 -116.83886719 215.85205078 C-130.33635021 220.65779179 -143.9298503 224.74785569 -157.75488281 228.49560547 C-164.07620923 230.23703404 -170.36085792 232.10600194 -176.64990234 233.95996094 C-179.39064345 234.76549548 -182.13340295 235.5634199 -184.87792969 236.35595703 C-185.86696289 236.64277344 -186.85599609 236.92958984 -187.875 237.22509766 C-188.84791992 237.5003125 -189.82083984 237.77552734 -190.82324219 238.05908203 C-192.13446045 238.43274902 -192.13446045 238.43274902 -193.47216797 238.81396484 C-195.87792969 239.35595703 -195.87792969 239.35595703 -199.87792969 239.35595703 C-197.60215167 248.54380552 -195.22254201 257.15564581 -190.70214844 265.53564453 C-190.32703125 266.23947266 -189.95191406 266.94330078 -189.56542969 267.66845703 C-189.04529297 268.59078125 -189.04529297 268.59078125 -188.51464844 269.53173828 C-187.87792969 271.35595703 -187.87792969 271.35595703 -188.87792969 275.35595703 C-196.46792969 275.35595703 -204.05792969 275.35595703 -211.87792969 275.35595703 C-220.89525181 258.60950167 -225.36861124 240.96685076 -228.87792969 222.35595703 C-229.04454102 221.48600098 -229.21115234 220.61604492 -229.3828125 219.71972656 C-237.78114932 174.36349139 -228.48241598 124.10457645 -202.56298828 85.61254883 C-189.38702871 66.85817924 -173.46591895 49.79956395 -154.87792969 36.35595703 C-153.88696289 35.63907715 -153.88696289 35.63907715 -152.87597656 34.90771484 C-108.51763743 3.25597427 -53.92919784 -9.7628379 0 0 Z " fill="#6752B4" transform="translate(792.8779296875,223.64404296875)"/>
<path d="M0 0 C23.42545212 -0.63502732 53.21748792 0.40507544 72.40625 15.94921875 C77.90760307 21.1814839 81.30723796 26.06708734 81.62182617 33.91137695 C81.64507649 49.66972502 73.63382736 59.27094433 63 70 C62.40445313 70.64453125 61.80890625 71.2890625 61.1953125 71.953125 C43.88465434 90.38337797 18.55792655 103.06824605 -3.90478516 113.97900391 C-5.95652698 114.97881564 -7.9996898 115.99474879 -10.04296875 117.01171875 C-55.60129957 139.41987084 -105.20231025 155.95468796 -154.63183594 167.23046875 C-158.25976611 168.05934929 -161.88368713 168.90464761 -165.5078125 169.75 C-208.04081156 179.62361862 -251.43905714 186.72613283 -295 190 C-296.27149902 190.10151367 -297.54299805 190.20302734 -298.85302734 190.30761719 C-316.88218529 191.71306243 -334.85447167 192.18256911 -352.9375 192.1875 C-354.37997604 192.18899551 -354.37997604 192.18899551 -355.85159302 192.19052124 C-372.20141996 192.18859532 -388.64793513 192.0107399 -404.875 189.8125 C-406.27758057 189.62349121 -406.27758057 189.62349121 -407.70849609 189.43066406 C-474.47664763 179.91568535 -474.47664763 179.91568535 -493.0625 155.1875 C-496.70813724 149.18983874 -496.83567659 142.8902354 -496 136 C-493.01219016 127.04797434 -487.25816306 119.91261148 -481 113 C-480.27296875 112.19046875 -479.5459375 111.3809375 -478.796875 110.546875 C-471.34862644 102.69327958 -462.70084076 96.38648919 -454 90 C-453.03078613 89.2869873 -453.03078613 89.2869873 -452.04199219 88.55957031 C-430.80212062 73 -430.80212062 73 -428 73 C-426.82034844 78.5871409 -425.6187755 84.35396506 -427 90 C-430.50681537 93.96014811 -434.51402993 96.21933365 -439.07226562 98.81542969 C-442.16215665 100.71413172 -444.78826208 103.03644833 -447.4375 105.5 C-447.92863281 105.95487793 -448.41976562 106.40975586 -448.92578125 106.87841797 C-454.80582301 112.50411188 -460.28298696 118.87847827 -461.4375 127.125 C-460.70613454 133.60280833 -457.71243059 137.81006442 -452.66796875 141.8828125 C-440.18231514 149.84933826 -425.06113742 153.74055166 -410.625 156.3125 C-409.80281982 156.45969482 -408.98063965 156.60688965 -408.13354492 156.75854492 C-387.79859142 160.02874682 -367.29746945 160.37013348 -346.75 160.3125 C-345.43095673 160.31100952 -344.11191345 160.30951904 -342.75289917 160.3079834 C-323.39172809 160.2766237 -304.27564179 159.66531811 -285.04052734 157.453125 C-280.73690595 156.95985212 -276.42619865 156.55844035 -272.11328125 156.15625 C-248.86717355 153.94063875 -225.95133879 150.26829762 -203 146 C-202.27067261 145.86466858 -201.54134521 145.72933716 -200.78991699 145.58990479 C-183.36148105 142.34439251 -166.14159715 138.51671945 -149 134 C-147.9805127 133.73606445 -146.96102539 133.47212891 -145.91064453 133.20019531 C-104.10755195 122.37600707 -62.98972561 108.66377094 -24 90 C-23.04883301 89.54786133 -22.09766602 89.09572266 -21.11767578 88.62988281 C15.59641287 71.22430101 15.59641287 71.22430101 43.875 43.1875 C45.45560556 38.70911757 45.66968702 34.69568784 45 30 C41.96211461 23.78614351 34.81224362 21.50042696 28.6875 19.08984375 C21.02507131 16.5141287 12.9989114 15.84355765 5 15 C3.08451581 10.03715461 1.43020832 5.13009505 0 0 Z " fill="#EEAB35" transform="translate(969,360)"/>
<path d="M0 0 C1.084021 0.00523682 2.16804199 0.01047363 3.28491211 0.01586914 C5.03964844 0.02070312 5.03964844 0.02070312 6.82983398 0.02563477 C8.67738281 0.03820312 8.67738281 0.03820312 10.56225586 0.05102539 C12.41560547 0.05779297 12.41560547 0.05779297 14.30639648 0.06469727 C17.37089703 0.07652931 20.43530307 0.09301366 23.49975586 0.11352539 C29.98585436 12.15199099 36.17797958 24.33609459 42.31039429 36.55755615 C43.1882857 38.30649016 44.06754345 40.05473897 44.94815063 41.80230713 C46.20128567 44.29070341 47.44895765 46.78176186 48.69506836 49.27368164 C49.27095451 50.4147361 49.27095451 50.4147361 49.85847473 51.57884216 C52.49975586 56.88442187 52.49975586 56.88442187 52.49975586 59.11352539 C53.48975586 59.11352539 54.47975586 59.11352539 55.49975586 59.11352539 C55.91438332 57.79678581 55.91438332 57.79678581 56.33738708 56.45344543 C57.40822996 53.3765135 58.64061852 50.58431111 60.09765625 47.67480469 C60.61481705 46.63740646 61.13197784 45.60000824 61.66481018 44.53117371 C62.22006882 43.42784195 62.77532745 42.32451019 63.34741211 41.18774414 C63.91930771 40.04441116 64.49120331 38.90107819 65.08042908 37.72309875 C66.28643549 35.31410071 67.49391763 32.905918 68.70410156 30.49902344 C70.25733005 27.40963941 71.80521174 24.31761463 73.35131168 21.22465801 C74.82694277 18.27373228 76.30596802 15.32451052 77.78491211 12.37524414 C78.34219498 11.26179123 78.89947784 10.14833832 79.47364807 9.00114441 C79.98765671 7.97950699 80.50166534 6.95786957 81.03125 5.90527344 C81.71170128 4.55008858 81.71170128 4.55008858 82.40589905 3.16752625 C83.49975586 1.11352539 83.49975586 1.11352539 84.49975586 0.11352539 C86.26834779 0.01406086 88.04087037 -0.01727678 89.81225586 -0.01928711 C90.88733398 -0.02057617 91.96241211 -0.02186523 93.07006836 -0.02319336 C94.20186523 -0.01932617 95.33366211 -0.01545898 96.49975586 -0.01147461 C97.63155273 -0.0153418 98.76334961 -0.01920898 99.92944336 -0.02319336 C101.00452148 -0.0219043 102.07959961 -0.02061523 103.18725586 -0.01928711 C104.18112305 -0.01815918 105.17499023 -0.01703125 106.19897461 -0.01586914 C108.49975586 0.11352539 108.49975586 0.11352539 109.49975586 1.11352539 C110.81605819 10.76640913 110.85333908 20.51206144 111.06225586 30.23852539 C111.08310242 31.16541168 111.10394897 32.09229797 111.12542725 33.04727173 C111.51160146 50.63085991 111.60769001 68.21361328 111.62475586 85.80102539 C111.62734406 87.05908997 111.62993225 88.31715454 111.63259888 89.61334229 C111.63840693 93.17983916 111.6369008 96.74624678 111.63256836 100.31274414 C111.63454727 101.39294327 111.63652618 102.4731424 111.63856506 103.58607483 C111.63545822 104.56668381 111.63235138 105.54729279 111.62915039 106.55761719 C111.6283548 107.41751755 111.6275592 108.27741791 111.6267395 109.16337585 C111.49975586 111.11352539 111.49975586 111.11352539 110.49975586 112.11352539 C108.95020027 112.21252062 107.39621913 112.24432063 105.84350586 112.24633789 C104.43391602 112.24827148 104.43391602 112.24827148 102.99584961 112.25024414 C101.5127832 112.24444336 101.5127832 112.24444336 99.99975586 112.23852539 C99.01104492 112.24239258 98.02233398 112.24625977 97.00366211 112.25024414 C96.06393555 112.24895508 95.12420898 112.24766602 94.15600586 112.24633789 C93.28782227 112.24520996 92.41963867 112.24408203 91.52514648 112.24291992 C89.49975586 112.11352539 89.49975586 112.11352539 88.49975586 111.11352539 C88.34622675 109.02885161 88.26122079 106.93910785 88.20263672 104.84960938 C88.18298355 104.19597412 88.16333038 103.54233887 88.14308167 102.86889648 C88.07899405 100.69924321 88.0217838 98.52946446 87.96459961 96.35961914 C87.92160999 94.85887967 87.87819354 93.35815237 87.83436584 91.85743713 C87.71995818 87.90047174 87.61137224 83.94336689 87.50396729 79.98620605 C87.39342537 75.95107236 87.27742066 71.9160962 87.16186523 67.88110352 C86.93579253 59.95872198 86.71586522 52.03618493 86.49975586 44.11352539 C84.40307594 46.21020531 83.56719485 47.82745495 82.32006836 50.49633789 C81.89137451 51.40561035 81.46268066 52.31488281 81.02099609 53.25170898 C80.56023682 54.2373584 80.09947754 55.22300781 79.62475586 56.23852539 C75.46608937 65.02392731 71.2530784 73.77912962 66.93725586 82.48852539 C66.16889404 84.05691162 66.16889404 84.05691162 65.38500977 85.65698242 C64.90596191 86.61975098 64.42691406 87.58251953 63.93334961 88.57446289 C63.51110107 89.42830566 63.08885254 90.28214844 62.65380859 91.16186523 C61.49975586 93.11352539 61.49975586 93.11352539 59.49975586 94.11352539 C57.52435706 94.26132501 55.54296662 94.33471505 53.56225586 94.36352539 C52.50135742 94.38930664 51.44045898 94.41508789 50.34741211 94.44165039 C47.00526419 94.05654693 46.58338857 93.63276195 44.49975586 91.11352539 C43.5023685 89.37431149 42.56900662 87.59777906 41.67944336 85.80102539 C40.88231934 84.20013062 40.88231934 84.20013062 40.0690918 82.56689453 C39.50996094 81.42728271 38.95083008 80.2876709 38.37475586 79.11352539 C37.80015625 77.95264404 37.22555664 76.7917627 36.63354492 75.59570312 C23.36088674 48.69691804 23.36088674 48.69691804 21.49975586 43.11352539 C20.83975586 43.11352539 20.17975586 43.11352539 19.49975586 43.11352539 C19.50419708 43.94846527 19.50863831 44.78340515 19.51321411 45.64364624 C19.55324178 53.50143164 19.58371523 61.35918294 19.6033802 69.21704674 C19.61382993 73.25712803 19.62801066 77.29712528 19.65063477 81.3371582 C19.67232098 85.23397272 19.68431553 89.13070626 19.68951035 93.02757645 C19.69321372 94.51637675 19.70044524 96.00517249 19.71121597 97.49393845 C19.72567505 99.57475206 19.72773619 101.65522845 19.72680664 103.73608398 C19.73124786 104.92189056 19.73568909 106.10769714 19.74026489 107.32943726 C19.49975586 110.11352539 19.49975586 110.11352539 17.49975586 112.11352539 C15.36083984 112.35644531 15.36083984 112.35644531 12.74584961 112.34399414 C11.34109375 112.34109375 11.34109375 112.34109375 9.90795898 112.33813477 C8.92762695 112.32588867 7.94729492 112.31364258 6.93725586 112.30102539 C5.95305664 112.30038086 4.96885742 112.29973633 3.95483398 112.29907227 C-3.36006882 112.25370071 -3.36006882 112.25370071 -4.50024414 111.11352539 C-4.59899543 109.61452774 -4.62823344 108.11088883 -4.62963867 106.60864258 C-4.63274551 105.63674988 -4.63585236 104.66485718 -4.63905334 103.66351318 C-4.63707443 102.58998596 -4.63509552 101.51645874 -4.63305664 100.41040039 C-4.63442123 99.28901672 -4.63578583 98.16763306 -4.63719177 97.01226807 C-4.63924045 93.29599181 -4.63284635 89.57979372 -4.62524414 85.86352539 C-4.62402557 84.6015332 -4.62280701 83.33954102 -4.62155151 82.03930664 C-4.59973706 62.72787181 -4.40948982 43.42206699 -4.06274414 24.11352539 C-4.04318665 22.951073 -4.02362915 21.78862061 -4.003479 20.59094238 C-3.94700047 17.32749324 -3.88332786 14.06428026 -3.81665039 10.80102539 C-3.79992783 9.82772278 -3.78320526 8.85442017 -3.76597595 7.85162354 C-3.7460408 6.97254333 -3.72610565 6.09346313 -3.70556641 5.18774414 C-3.69002213 4.42034912 -3.67447784 3.6529541 -3.65846252 2.86230469 C-3.40244323 0.03253719 -2.84884638 0.12935393 0 0 Z " fill="#F3EEE5" transform="translate(575.500244140625,674.886474609375)"/>
<path d="M0 0 C1.5285965 -0.01925285 1.5285965 -0.01925285 3.08807373 -0.03889465 C4.20144104 -0.04628159 5.31480835 -0.05366852 6.46191406 -0.0612793 C7.60605774 -0.06935104 8.75020142 -0.07742279 9.92901611 -0.08573914 C12.36363194 -0.09961003 14.79826746 -0.11031864 17.23291016 -0.11816406 C20.92031259 -0.13523314 24.60678464 -0.17907541 28.29394531 -0.22338867 C30.66242831 -0.23352797 33.03091894 -0.24204018 35.39941406 -0.2487793 C36.4884906 -0.26628738 37.57756714 -0.28379547 38.699646 -0.30183411 C50.68246058 -0.26866459 62.35046131 2.76629242 71.22753906 11.17700195 C78.69851569 20.59486443 81.32226902 31.32992428 80.22753906 43.17700195 C78.50535354 53.9373239 74.83963118 61.66719321 66.40332031 68.6418457 C58.91521292 73.92519616 50.08918996 76.45049252 40.98144531 76.37231445 C40.3254686 76.36948456 39.66949188 76.36665466 38.99363708 76.36373901 C36.92557497 76.35266179 34.85796733 76.32758258 32.79003906 76.30200195 C31.37663392 76.29195597 29.96322189 76.28283297 28.54980469 76.2746582 C25.10890512 76.25276379 21.66826655 76.21832247 18.22753906 76.17700195 C18.23539429 77.75952759 18.23539429 77.75952759 18.2434082 79.37402344 C18.26145807 83.27456825 18.27297101 87.17510935 18.2824707 91.07568359 C18.28751096 92.76644511 18.29434311 94.45720224 18.30297852 96.14794922 C18.31505763 98.57300902 18.32077029 100.99801139 18.32519531 103.4230957 C18.3303566 104.18351669 18.33551788 104.94393768 18.34083557 105.72740173 C18.34103144 107.54432766 18.28951183 109.36113323 18.22753906 111.17700195 C16.5735979 112.83094312 14.62438493 112.30699878 12.35253906 112.30981445 C11.36769531 112.31110352 10.38285156 112.31239258 9.36816406 112.3137207 C8.33175781 112.30985352 7.29535156 112.30598633 6.22753906 112.30200195 C4.67292969 112.30780273 4.67292969 112.30780273 3.08691406 112.3137207 C2.10207031 112.31243164 1.11722656 112.31114258 0.10253906 112.30981445 C-0.80753906 112.30868652 -1.71761719 112.30755859 -2.65527344 112.30639648 C-4.77246094 112.17700195 -4.77246094 112.17700195 -5.77246094 111.17700195 C-5.87016295 109.74986575 -5.89877789 108.31792766 -5.89944458 106.88745117 C-5.9022644 105.96196472 -5.90508423 105.03647827 -5.9079895 104.08294678 C-5.90495316 102.5478244 -5.90495316 102.5478244 -5.90185547 100.98168945 C-5.90360779 99.91025696 -5.90536011 98.83882446 -5.90716553 97.73492432 C-5.91158647 94.17393398 -5.9086452 90.61299284 -5.90527344 87.05200195 C-5.90594641 84.58959951 -5.90691637 82.12719713 -5.90817261 79.66479492 C-5.90964991 74.49633148 -5.90749398 69.32788528 -5.90283203 64.15942383 C-5.89713473 57.51759468 -5.90041356 50.87580594 -5.9064045 44.23397827 C-5.91000923 39.14696953 -5.90887192 34.05997045 -5.9062767 28.97296143 C-5.90560719 26.52321366 -5.90643669 24.07346502 -5.90875626 21.62371826 C-5.91128135 18.20655985 -5.9074442 14.78946788 -5.90185547 11.37231445 C-5.9038797 10.34889954 -5.90590393 9.32548462 -5.9079895 8.27105713 C-5.90516968 7.34557068 -5.90234985 6.42008423 -5.89944458 5.46655273 C-5.89906755 4.65759552 -5.89869053 3.84863831 -5.89830208 3.01516724 C-5.64151923 -0.7356674 -3.20125807 0.03501119 0 0 Z " fill="#6450B3" transform="translate(814.7724609375,674.822998046875)"/>
<path d="M0 0 C-1.91069558 3.45443637 -4.08943737 6.35735603 -6.71801758 9.29882812 C-13.2475763 16.61356543 -18.35118072 24.38531868 -23 33 C-23.55429687 34.02351563 -24.10859375 35.04703125 -24.6796875 36.1015625 C-33.96705752 54.72442364 -37.36437841 75.04854089 -37.26074219 95.64624023 C-37.24997491 98.19343623 -37.26071752 100.73993405 -37.2734375 103.28710938 C-37.27211643 104.93489736 -37.26955512 106.58268492 -37.265625 108.23046875 C-37.26967346 108.97757614 -37.27372192 109.72468353 -37.27789307 110.49443054 C-37.2371014 115.16204585 -36.60904831 119.37269609 -35.44036865 123.89399719 C-34.72981257 127.29213438 -34.87419307 130.54030944 -35 134 C-50.24736356 138.87398043 -65.58598092 143.54137401 -81.15625 147.27734375 C-85.7694617 148.44965716 -90.31728566 149.84723012 -94.87109375 151.23046875 C-97.73663921 151.93522837 -100.06925001 152.15886308 -103 152 C-104.37885441 114.97520562 -91.09774497 76.84184267 -68 48 C-67.31550781 47.11183594 -66.63101563 46.22367187 -65.92578125 45.30859375 C-52.45584824 28.20352171 -23.95813438 -1.38636582 0 0 Z " fill="#181529" transform="translate(689,267)"/>
<path d="M0 0 C1.16273438 -0.03738281 2.32546875 -0.07476563 3.5234375 -0.11328125 C5.1940625 -0.13068359 5.1940625 -0.13068359 6.8984375 -0.1484375 C7.92372559 -0.16825684 8.94901367 -0.18807617 10.00537109 -0.20849609 C12.625 0.375 12.625 0.375 14.28173828 2.34326172 C16.03386624 6.29781006 17.46690928 10.30784422 18.84375 14.40625 C19.46227579 16.21006998 20.08210692 18.01344279 20.703125 19.81640625 C21.02023437 20.7388916 21.33734375 21.66137695 21.6640625 22.61181641 C23.1751966 26.9570948 24.75565006 31.27611629 26.34375 35.59375 C26.6543335 36.43969727 26.96491699 37.28564453 27.28491211 38.15722656 C28.23039432 40.7302662 29.17742456 43.30273056 30.125 45.875 C31.38722845 49.30142024 32.64800779 52.72836379 33.90625 56.15625 C34.21469849 56.99655258 34.52314697 57.83685516 34.84094238 58.70262146 C37.05645425 64.76240099 39.19701052 70.84607691 41.3125 76.94140625 C44.06399009 84.86771234 47.01330587 92.68898312 50.2109375 100.44726562 C50.70980469 101.70893555 50.70980469 101.70893555 51.21875 102.99609375 C51.51458984 103.7223999 51.81042969 104.44870605 52.11523438 105.19702148 C52.625 107.375 52.625 107.375 51.625 112.375 C44.035 112.375 36.445 112.375 28.625 112.375 C25.44925778 104.99354512 22.95615686 98.14552288 20.625 90.375 C7.095 90.375 -6.435 90.375 -20.375 90.375 C-22.96572904 97.23997422 -22.96572904 97.23997422 -25.55053711 104.10717773 C-26.0340564 105.38250366 -26.0340564 105.38250366 -26.52734375 106.68359375 C-26.85726318 107.55814209 -27.18718262 108.43269043 -27.52709961 109.33374023 C-28.375 111.375 -28.375 111.375 -29.375 112.375 C-30.99757544 112.4741657 -32.62439831 112.50579777 -34.25 112.5078125 C-35.23484375 112.50910156 -36.2196875 112.51039063 -37.234375 112.51171875 C-38.27078125 112.50785156 -39.3071875 112.50398437 -40.375 112.5 C-41.92960938 112.50580078 -41.92960938 112.50580078 -43.515625 112.51171875 C-44.50046875 112.51042969 -45.4853125 112.50914062 -46.5 112.5078125 C-47.41007813 112.50668457 -48.32015625 112.50555664 -49.2578125 112.50439453 C-51.375 112.375 -51.375 112.375 -52.375 111.375 C-52.71016881 106.75744733 -51.89937081 103.35805336 -50.27734375 99.05078125 C-49.81956543 97.82311035 -49.36178711 96.59543945 -48.89013672 95.33056641 C-48.38593212 94.01172245 -47.88086884 92.6932065 -47.375 91.375 C-46.86319183 90.02662564 -46.35163898 88.67815434 -45.84033203 87.32958984 C-43.94608093 82.35151001 -42.02782937 77.38273743 -40.10717773 72.41479492 C-36.53530442 63.16752987 -33.10511662 53.88603493 -29.83276367 44.52856445 C-27.7549003 38.58991811 -25.60451415 32.67792974 -23.44238281 26.76953125 C-22.97575432 25.49271985 -22.51061564 24.21536311 -22.046875 22.9375 C-13.78337957 0.16697927 -13.78337957 0.16697927 0 0 Z " fill="#644FB2" transform="translate(946.375,674.625)"/>
<path d="M0 0 C-0.54235258 4.94777796 -2.8108807 8.40359579 -5.4375 12.5 C-5.88561035 13.20487549 -6.3337207 13.90975098 -6.79541016 14.63598633 C-14.05764581 25.89765886 -22.41089596 35.93087124 -31.66601562 45.60302734 C-32.80358673 46.79431246 -33.92678224 47.99929764 -35.046875 49.20703125 C-64.98142547 80.61272416 -112.3920397 100.98092263 -155.53211975 102.38546753 C-159.79317794 102.46688721 -164.05091037 102.46845646 -168.3125 102.4375 C-169.20697845 102.43445862 -170.10145691 102.43141724 -171.02304077 102.42828369 C-184.70127796 102.35966454 -197.73983216 101.60145939 -211 98 C-211.83112305 97.78569336 -212.66224609 97.57138672 -213.51855469 97.35058594 C-236.69045241 91.29539623 -260.51570261 81.13035133 -280 67 C-280 66.34 -280 65.68 -280 65 C-274.70226969 64.8497808 -269.40582362 64.7419203 -264.10644531 64.67041016 C-262.31032677 64.64054977 -260.51434994 64.59984497 -258.71875 64.54736328 C-246.46170639 64.19853001 -237.93511798 65.37331222 -227 71 C-184.96334706 87.58991876 -138.93048336 83.69029366 -98 66 C-96.85015625 65.51789063 -95.7003125 65.03578125 -94.515625 64.5390625 C-69.5995796 53.63137151 -42.61269896 34.49533805 -26.375 12.4375 C-22.02351097 7.181962 -15.09833157 4.70323704 -9 2 C-8.11441406 1.60425781 -7.22882813 1.20851563 -6.31640625 0.80078125 C-4 0 -4 0 0 0 Z " fill="#5D4AA3" transform="translate(928,509)"/>
<path d="M0 0 C9.10959165 -0.02312545 18.21917326 -0.04091612 27.3287878 -0.05181217 C31.55831371 -0.05704056 35.7878196 -0.0641374 40.01733398 -0.07543945 C44.09568543 -0.08626991 48.17401757 -0.09227717 52.25238228 -0.09487724 C53.81177639 -0.09673121 55.3711694 -0.10035127 56.93055534 -0.10573006 C59.10729162 -0.11294262 61.28394714 -0.11399085 63.46069336 -0.11352539 C65.32267616 -0.11685631 65.32267616 -0.11685631 67.22227478 -0.12025452 C70 0 70 0 71 1 C71.09880797 2.47652664 71.13079245 3.95767236 71.1328125 5.4375 C71.13410156 6.33210937 71.13539062 7.22671875 71.13671875 8.1484375 C71.13285156 9.08945312 71.12898438 10.03046875 71.125 11 C71.12886719 11.94101562 71.13273437 12.88203125 71.13671875 13.8515625 C71.13542969 14.74617187 71.13414063 15.64078125 71.1328125 16.5625 C71.13168457 17.38878906 71.13055664 18.21507812 71.12939453 19.06640625 C71 21 71 21 70 22 C68.55710213 22.09295815 67.10970215 22.11746513 65.66381836 22.11352539 C64.7429393 22.11344986 63.82206024 22.11337433 62.87327576 22.11329651 C61.87224319 22.10813522 60.87121063 22.10297394 59.83984375 22.09765625 C58.82024063 22.0962413 57.80063751 22.09482635 56.75013733 22.09336853 C53.47922893 22.08775097 50.20838787 22.0751955 46.9375 22.0625 C44.72591244 22.05748726 42.51432382 22.05292396 40.30273438 22.04882812 C34.86844248 22.0386248 29.43429702 22.01905285 24 22 C24 29.59 24 37.18 24 45 C37.2 45 50.4 45 64 45 C66.98514842 50.97029685 65 58.3250052 65 65 C51.8 65.33 38.6 65.66 25 66 C24.67 73.92 24.34 81.84 24 90 C27.38121094 89.98839844 30.76242187 89.97679687 34.24609375 89.96484375 C37.5059398 89.95705425 40.76578483 89.95097688 44.02563477 89.94506836 C46.29842591 89.94002675 48.5712138 89.93319363 50.84399414 89.92456055 C54.10303551 89.91248739 57.36203417 89.90677013 60.62109375 89.90234375 C61.64400009 89.89718246 62.66690643 89.89202118 63.72080994 89.88670349 C64.66170975 89.88662796 65.60260956 89.88655243 66.57202148 89.88647461 C67.40475082 89.884254 68.23748016 89.88203339 69.09544373 89.87974548 C71 90 71 90 72 91 C72.08685603 92.56172745 72.10702219 94.12729344 72.09765625 95.69140625 C72.09282227 97.10776367 72.09282227 97.10776367 72.08789062 98.55273438 C72.07532227 100.04256836 72.07532227 100.04256836 72.0625 101.5625 C72.05798828 102.55958984 72.05347656 103.55667969 72.04882812 104.58398438 C72.03700007 107.05604849 72.02051849 109.52799518 72 112 C62.76002448 112.02312524 53.52005886 112.04091601 44.28006077 112.05181217 C39.99000085 112.05704061 35.69996067 112.06413753 31.40991211 112.07543945 C27.273206 112.08626975 23.13651892 112.09227714 18.99979973 112.09487724 C17.41807696 112.09673124 15.83635529 112.10035136 14.25464058 112.10573006 C12.04677162 112.1129424 9.83898227 112.11399086 7.63110352 112.11352539 C5.74247337 112.11685631 5.74247337 112.11685631 3.81568909 112.12025452 C1 112 1 112 0 111 C-0.09558036 109.55786001 -0.12188394 108.11105921 -0.12025452 106.66575623 C-0.12162918 105.73041046 -0.12300385 104.7950647 -0.12442017 103.83137512 C-0.12082489 102.79703842 -0.11722961 101.76270172 -0.11352539 100.69702148 C-0.11367142 99.61422913 -0.11381744 98.53143677 -0.1139679 97.41583252 C-0.11326823 93.81756626 -0.10547333 90.21935103 -0.09765625 86.62109375 C-0.09579226 84.13387582 -0.09436827 81.64665752 -0.09336853 79.15943909 C-0.0899335 73.26978809 -0.08204277 67.3801561 -0.07201904 61.49051291 C-0.05976246 54.12974626 -0.05437791 46.76897736 -0.04882812 39.40820312 C-0.03808815 26.27212602 -0.02120089 13.13606417 0 0 Z " fill="#644FB3" transform="translate(1123,675)"/>
<path d="M0 0 C2 2 2 2 2 4.5 C0.36474471 10.22339352 -2.77273039 15.77273039 -7 20 C-10.27408155 19.60037977 -12.92767697 18.09350057 -15.8125 16.5625 C-24.22801597 12.3302783 -31.60182195 11.21379463 -41 12 C-45.17644456 13.4401533 -47.99327171 14.98654342 -50 19 C-50.39087311 22.58300347 -50.26511431 25.20465707 -49.125 28.625 C-43.51685643 34.89292517 -35.06356811 36.64526911 -27.25 38.875 C-3.08527586 45.82216185 -3.08527586 45.82216185 3 56 C3.40734375 56.64324219 3.8146875 57.28648437 4.234375 57.94921875 C8.27650872 65.43824046 8.10069747 73.89380584 6.33984375 82.0625 C3.68402133 90.34038806 -0.85935662 96.39230485 -8.375 100.8125 C-23.81518686 108.59812903 -40.53612344 108.69323733 -57 104 C-64.03397837 101.63012915 -71.97383033 98.72845639 -77 93 C-77.984375 90.76953125 -77.984375 90.76953125 -78 88 C-76.80760925 85.36102231 -75.21853522 83.05570354 -73.5625 80.6875 C-72.9118457 79.71973633 -72.9118457 79.71973633 -72.24804688 78.73242188 C-71.17863028 77.14592473 -70.0910456 75.57170116 -69 74 C-64.56701596 74.53299808 -61.46166912 75.61350296 -57.625 77.875 C-50.020977 82.10963664 -44.78641862 84.2479965 -35.9375 84.375 C-35.26436768 84.38901855 -34.59123535 84.40303711 -33.89770508 84.41748047 C-28.83949256 84.36920681 -25.42245869 83.26148456 -21 81 C-18.57181879 78.1495264 -18.44701759 74.64902894 -18.5703125 70.95703125 C-19.1834608 68.16441947 -20.73473682 66.69743098 -23.03515625 65.08984375 C-28.99392713 61.78468058 -35.14166456 59.83717879 -41.7890625 58.484375 C-53.02391745 56.02302869 -65.87575959 50.93143298 -72.34765625 40.9140625 C-76.84909038 32.23387768 -77.8447485 21.41112146 -75.12890625 11.97265625 C-69.86211486 0.7656149 -61.15189191 -4.30744129 -49.9765625 -8.81640625 C-33.96767776 -13.81481349 -13.83526547 -8.51026874 0 0 Z " fill="#644FB2" transform="translate(784,682)"/>
<path d="M0 0 C5.12632121 4.10540131 10.39106059 8.4628802 14 14 C14.17578125 16.4453125 14.17578125 16.4453125 13 19 C10.92168804 21.22380134 8.60705044 23.036628 6.1875 24.875 C5.55779297 25.38546875 4.92808594 25.8959375 4.27929688 26.421875 C3.66505859 26.89882813 3.05082031 27.37578125 2.41796875 27.8671875 C1.85875732 28.30144043 1.2995459 28.73569336 0.72338867 29.18310547 C-1 30 -1 30 -3.11108398 29.73779297 C-5.62685722 28.75515542 -6.60443384 27.37485727 -8.25 25.25 C-13.89066715 18.52458916 -20.47932775 14.71716362 -29.30859375 13.74609375 C-37.50451321 13.34972323 -44.49004011 15.70168495 -50.875 20.875 C-58.46505629 27.96500552 -60.59888902 35.66770698 -61.23828125 45.76171875 C-61.45258296 57.09715139 -60.18657023 67.22666595 -52.703125 76.31640625 C-46.88079321 82.07196818 -39.94788947 85.01778035 -31.8125 85.375 C-22.22476724 85.16657103 -14.01719519 81.45581957 -7 75 C-4.58172545 72.31663436 -4.58172545 72.31663436 -3 70 C1.44442728 70.88828118 4.37464425 73.30573334 7.8125 76.125 C8.42287109 76.58648438 9.03324219 77.04796875 9.66210938 77.5234375 C11.37617753 78.93024879 12.73902988 80.17460641 14 82 C14.16977675 86.10144877 13.65708727 88.11815739 11.20703125 91.40625 C-1.61094795 102.61414046 -16.56589813 108.80744802 -33.6953125 108.2734375 C-48.99809837 107.00724954 -64.25700198 101.52274108 -74.8125 89.96875 C-84.31866059 77.06753206 -87.36445917 64.24667169 -87.25 48.375 C-87.25773438 47.29476562 -87.26546875 46.21453125 -87.2734375 45.1015625 C-87.23689262 30.11816257 -81.85590937 16.95093386 -71.3671875 6.1796875 C-52.16997529 -11.49695344 -21.88526153 -14.98946167 0 0 Z " fill="#6450B2" transform="translate(1091,681)"/>
<path d="M0 0 C0.67168213 -0.00175232 1.34336426 -0.00350464 2.03540039 -0.00531006 C4.25987313 -0.00971838 6.48426666 -0.00679451 8.70874023 -0.00341797 C10.25048335 -0.00409122 11.79222636 -0.00506143 13.33396912 -0.00631714 C16.56624359 -0.00779266 19.79849045 -0.00564392 23.03076172 -0.00097656 C27.18282292 0.00472542 31.33481955 0.00143785 35.4868784 -0.00454903 C38.67034903 -0.00815449 41.85380423 -0.00701621 45.03727531 -0.00442123 C46.56875554 -0.00375217 48.10023716 -0.00457967 49.63171577 -0.00690079 C51.76753604 -0.00942759 53.90325018 -0.00558659 56.0390625 0 C57.25658707 0.00079559 58.47411163 0.00159119 59.72853088 0.00241089 C62.45483398 0.12939453 62.45483398 0.12939453 63.45483398 1.12939453 C63.55364195 2.60592117 63.58562644 4.08706689 63.58764648 5.56689453 C63.58893555 6.46150391 63.59022461 7.35611328 63.59155273 8.27783203 C63.58768555 9.21884766 63.58381836 10.15986328 63.57983398 11.12939453 C63.58370117 12.07041016 63.58756836 13.01142578 63.59155273 13.98095703 C63.59026367 14.87556641 63.58897461 15.77017578 63.58764648 16.69189453 C63.58651855 17.51818359 63.58539063 18.34447266 63.58422852 19.19580078 C63.45483398 21.12939453 63.45483398 21.12939453 62.45483398 22.12939453 C61.01193612 22.22235269 59.56453614 22.24685966 58.11865234 22.24291992 C57.19777328 22.24284439 56.27689423 22.24276886 55.32810974 22.24269104 C54.32707718 22.23752975 53.32604462 22.23236847 52.29467773 22.22705078 C51.27507462 22.22563583 50.2554715 22.22422089 49.20497131 22.22276306 C45.93406291 22.2171455 42.66322185 22.20459003 39.39233398 22.19189453 C37.18074643 22.18688179 34.9691578 22.1823185 32.75756836 22.17822266 C27.32327647 22.16801933 21.889131 22.14844738 16.45483398 22.12939453 C16.45483398 30.37939453 16.45483398 38.62939453 16.45483398 47.12939453 C20.66040039 47.11199219 20.66040039 47.11199219 24.95092773 47.09423828 C27.654784 47.0864482 30.35863904 47.08037116 33.0625 47.07446289 C34.94727128 47.06942209 36.83203863 47.06258955 38.71679688 47.05395508 C41.41985034 47.04187836 44.12285229 47.03616385 46.82592773 47.03173828 C47.67384384 47.026577 48.52175995 47.02141571 49.39537048 47.01609802 C51.41554467 47.01590258 53.43561332 47.06733242 55.45483398 47.12939453 C57.04420955 48.71877009 56.58464541 50.36839299 56.58764648 52.56689453 C56.58893555 53.46150391 56.59022461 54.35611328 56.59155273 55.27783203 C56.58768555 56.21884766 56.58381836 57.15986328 56.57983398 58.12939453 C56.58370117 59.07041016 56.58756836 60.01142578 56.59155273 60.98095703 C56.59026367 61.87556641 56.58897461 62.77017578 56.58764648 63.69189453 C56.58651855 64.51818359 56.58539063 65.34447266 56.58422852 66.19580078 C56.45483398 68.12939453 56.45483398 68.12939453 55.45483398 69.12939453 C52.57049578 69.21804661 49.71021241 69.24460749 46.82592773 69.22705078 C45.52958153 69.22492836 45.52958153 69.22492836 44.20704651 69.22276306 C41.43544106 69.21714692 38.66391518 69.20459172 35.89233398 69.19189453 C34.01798619 69.18688161 32.14363713 69.18231834 30.26928711 69.17822266 C25.66443855 69.16717225 21.05964977 69.14989683 16.45483398 69.12939453 C16.46268921 71.02999634 16.46268921 71.02999634 16.47070312 72.96899414 C16.48874913 77.65225524 16.50026452 82.33551324 16.50976562 87.01879883 C16.51480677 89.04907752 16.52163955 91.07935255 16.53027344 93.10961914 C16.54234866 96.021168 16.54806433 98.93266903 16.55249023 101.84423828 C16.55765152 102.75777573 16.56281281 103.67131317 16.56813049 104.61253357 C16.56832567 106.7851488 16.51695203 108.95766749 16.45483398 111.12939453 C14.76966444 112.81456407 12.66715611 112.25947472 10.36108398 112.26220703 C9.33112305 112.26349609 8.30116211 112.26478516 7.23999023 112.26611328 C5.61383789 112.2603125 5.61383789 112.2603125 3.95483398 112.25439453 C2.87073242 112.25826172 1.78663086 112.26212891 0.66967773 112.26611328 C-0.3602832 112.26482422 -1.39024414 112.26353516 -2.45141602 112.26220703 C-3.40338867 112.2610791 -4.35536133 112.25995117 -5.33618164 112.25878906 C-7.54516602 112.12939453 -7.54516602 112.12939453 -8.54516602 111.12939453 C-8.64071001 109.69992982 -8.6670504 108.26576788 -8.66542053 106.83311462 C-8.6667952 105.90618301 -8.66816986 104.9792514 -8.66958618 104.02423096 C-8.66599091 102.999245 -8.66239563 101.97425903 -8.65869141 100.91821289 C-8.65883743 99.8451741 -8.65898346 98.77213531 -8.65913391 97.6665802 C-8.65843425 94.10077937 -8.6506394 90.53503004 -8.64282227 86.96923828 C-8.64095827 84.5044406 -8.63953428 82.03964255 -8.63853455 79.57484436 C-8.63470788 73.07285548 -8.62487634 66.57088878 -8.61383057 60.06890869 C-8.60308349 53.43998636 -8.59903761 46.8110576 -8.59399414 40.18212891 C-8.5832542 27.1645413 -8.56636698 14.14696909 -8.54516602 1.12939453 C-5.67323108 -0.30657294 -3.20958939 0.00209594 0 0 Z " fill="#F1ECE4" transform="translate(350.545166015625,674.87060546875)"/>
<path d="M0 0 C2.22771538 2.22771538 1.31042754 6.72622267 1.31689453 9.72583008 C0.98442349 27.26675574 -8.20963039 44.30279956 -20.52685547 56.51367188 C-22.05499848 57.95158713 -23.58972411 59.38220879 -25.125 60.8125 C-29.27233358 64.59877914 -29.27233358 64.59877914 -30.3125 69.9375 C-30.21582031 70.56785156 -30.11914062 71.19820313 -30.01953125 71.84765625 C-29.93942785 80.6750512 -38.49325948 89.76358786 -44 96 C-44.48855469 96.57105469 -44.97710938 97.14210938 -45.48046875 97.73046875 C-46.75 99.125 -46.75 99.125 -49 101 C-50.32 101 -51.64 101 -53 101 C-52.86116581 97.56217969 -52.71272946 94.12483971 -52.5625 90.6875 C-52.52318359 89.71103516 -52.48386719 88.73457031 -52.44335938 87.72851562 C-52.38051758 86.32182617 -52.38051758 86.32182617 -52.31640625 84.88671875 C-52.27974854 84.02264404 -52.24309082 83.15856934 -52.20532227 82.26831055 C-52 80 -52 80 -51 77 C-51.64066406 77.08121094 -52.28132812 77.16242188 -52.94140625 77.24609375 C-59.88514874 77.75316287 -59.88514874 77.75316287 -63.046875 75.6171875 C-64.80648305 73.81865007 -66.39630412 71.93746 -68 70 C-68.969375 69.195625 -69.93875 68.39125 -70.9375 67.5625 C-73.88269911 63.90331323 -73.38984447 61.6001647 -73 57 C-73.97839844 57.144375 -74.95679688 57.28875 -75.96484375 57.4375 C-83.011567 58.44610103 -89.86394732 59.25038781 -97 59 C-97.671875 57.23046875 -97.671875 57.23046875 -98 55 C-93.07380246 46.41591697 -82.30601032 38.13491582 -73.20703125 34.51171875 C-68.75057745 33.47845247 -64.09548311 33.95225844 -60 36 C-59.73058594 35.41476562 -59.46117187 34.82953125 -59.18359375 34.2265625 C-50.92328341 18.68736484 -32.21802129 6.889201 -16.0234375 1.3203125 C-10.76590719 -0.20877002 -5.44953377 -0.45678353 0 0 Z " fill="#F3EDE5" transform="translate(1059,225)"/>
<path d="M0 0 C0.98484375 -0.00128906 1.9696875 -0.00257813 2.984375 -0.00390625 C4.02078125 -0.00003906 5.0571875 0.00382813 6.125 0.0078125 C7.67960937 0.00201172 7.67960937 0.00201172 9.265625 -0.00390625 C10.25046875 -0.00261719 11.2353125 -0.00132812 12.25 0 C13.16007812 0.00112793 14.07015625 0.00225586 15.0078125 0.00341797 C17.125 0.1328125 17.125 0.1328125 18.125 1.1328125 C18.22017803 3.90220216 18.25054265 6.64658409 18.23852539 9.41625977 C18.23867142 10.28447357 18.23881744 11.15268738 18.2389679 12.04721069 C18.23826846 14.93123836 18.23047463 17.8152023 18.22265625 20.69921875 C18.22079218 22.69319117 18.21936823 24.68716405 18.21836853 26.68113708 C18.21454248 31.94026952 18.20471145 37.19937453 18.19366455 42.45849609 C18.1834523 47.82063425 18.17887131 53.18277681 18.17382812 58.54492188 C18.16308926 69.07423083 18.1460118 79.60351939 18.125 90.1328125 C18.69907089 90.13059189 19.27314178 90.12837128 19.86460876 90.12608337 C25.8175291 90.10402993 31.7704379 90.08890566 37.72338867 90.07788086 C39.94767732 90.07283933 42.17196263 90.06600627 44.39624023 90.05737305 C47.58578309 90.04529952 50.77528229 90.03958254 53.96484375 90.03515625 C55.46639259 90.02741432 55.46639259 90.02741432 56.99827576 90.01951599 C57.91915482 90.01944046 58.84003387 90.01936493 59.78881836 90.01928711 C60.60378281 90.0170665 61.41874725 90.01484589 62.25840759 90.01255798 C64.125 90.1328125 64.125 90.1328125 65.125 91.1328125 C65.22380797 92.60933914 65.25579245 94.09048486 65.2578125 95.5703125 C65.25910156 96.46492187 65.26039063 97.35953125 65.26171875 98.28125 C65.25785156 99.22226562 65.25398437 100.16328125 65.25 101.1328125 C65.25386719 102.07382812 65.25773438 103.01484375 65.26171875 103.984375 C65.26042969 104.87898437 65.25914062 105.77359375 65.2578125 106.6953125 C65.25668457 107.52160156 65.25555664 108.34789062 65.25439453 109.19921875 C65.125 111.1328125 65.125 111.1328125 64.125 112.1328125 C61.98299676 112.23233543 59.83767295 112.26080929 57.69335938 112.26220703 C56.68605522 112.26483551 56.68605522 112.26483551 55.65840149 112.26751709 C53.42849172 112.2719348 51.19866064 112.26899792 48.96875 112.265625 C47.42557764 112.26629806 45.88240539 112.26726811 44.3392334 112.26852417 C41.1009826 112.27000103 37.86275933 112.26784697 34.62451172 112.26318359 C30.46457477 112.2574863 26.30470234 112.26076537 22.14476776 112.26675606 C18.95700592 112.27036199 15.76925949 112.26922294 12.58149719 112.26662827 C11.04722588 112.26595908 9.51295318 112.26678711 7.97868347 112.26910782 C5.83796459 112.27163488 3.69735158 112.26779304 1.55664062 112.26220703 C-0.27417053 112.26101364 -0.27417053 112.26101364 -2.14196777 112.25979614 C-4.875 112.1328125 -4.875 112.1328125 -5.875 111.1328125 C-5.97270201 109.7056763 -6.00131695 108.2737382 -6.00198364 106.84326172 C-6.00480347 105.91777527 -6.00762329 104.99228882 -6.01052856 104.03875732 C-6.00749222 102.50363495 -6.00749222 102.50363495 -6.00439453 100.9375 C-6.00614685 99.8660675 -6.00789917 98.79463501 -6.00970459 97.69073486 C-6.01412553 94.12974453 -6.01118426 90.56880339 -6.0078125 87.0078125 C-6.00848547 84.54541006 -6.00945544 82.08300768 -6.01071167 79.62060547 C-6.01218897 74.45214202 -6.01003305 69.28369582 -6.00537109 64.11523438 C-5.9996738 57.47340523 -6.00295263 50.83161648 -6.00894356 44.18978882 C-6.0125483 39.10278008 -6.01141099 34.015781 -6.00881577 28.92877197 C-6.00814625 26.4790242 -6.00897575 24.02927557 -6.01129532 21.57952881 C-6.01382042 18.1623704 -6.00998326 14.74527843 -6.00439453 11.328125 C-6.00641876 10.30471008 -6.00844299 9.28129517 -6.01052856 8.22686768 C-6.00770874 7.30138123 -6.00488892 6.37589478 -6.00198364 5.42236328 C-6.00160662 4.61340607 -6.00122959 3.80444885 -6.00084114 2.97097778 C-5.74111608 -0.82283394 -3.21869424 0.00398917 0 0 Z " fill="#F5F0E8" transform="translate(488.875,674.8671875)"/>
<path d="M0 0 C1.36125 0.928125 1.36125 0.928125 2.75 1.875 C10.70078405 9.38407382 15.1732054 17.58220128 15.5 28.5625 C15.27188855 36.42054632 13.63597246 40.77825588 8.75 46.75 C-0.15154203 54.03307984 -9.81780581 54.98967256 -21 54 C-33.53243891 51.6703417 -45.06768095 45.0727861 -53 35 C-58.17426764 26.3289081 -59.82688279 19.10235062 -59 9 C-56.97132242 1.10495541 -50.6054331 -3.83674014 -43.875 -7.875 C-28.79332241 -13.77652601 -12.77614837 -8.78960583 0 0 Z " fill="#171528" transform="translate(805,260)"/>
<path d="M0 0 C7.5249565 5.43871055 12.78371906 12.0623259 15.05078125 21.24609375 C16.54439596 30.96213286 15.40126029 39.78095639 9.89453125 48.08984375 C5.32207641 53.74001678 0.23544731 56.49573631 -6.5625 58.76171875 C-15.81572745 59.54684108 -23.86055893 59.51716926 -31.5625 53.76171875 C-39.0838844 47.21317751 -42.67355267 38.48535945 -43.80078125 28.69140625 C-44.14822928 19.07258195 -40.53000159 11.0116992 -34.4296875 3.70703125 C-24.87272425 -6.24980494 -11.67488429 -7.27983337 0 0 Z " fill="#171528" transform="translate(726.5625,303.23828125)"/>
<path d="M0 0 C0.43054688 0.58910156 0.86109375 1.17820312 1.3046875 1.78515625 C2.83008484 3.77801406 4.42538829 5.59420131 6.125 7.4375 C29.31553715 33.94794562 41.1142269 71.1086293 41.5625 105.9375 C41.61212891 107.11634766 41.66175781 108.29519531 41.71289062 109.50976562 C41.81199247 117.85791663 41.81199247 117.85791663 39.47216797 121.14892578 C35.12490849 125 35.12490849 125 32 125 C31.86722656 123.77023437 31.73445312 122.54046875 31.59765625 121.2734375 C31.41935957 119.64061531 31.2409692 118.00780334 31.0625 116.375 C30.97548828 115.56675781 30.88847656 114.75851562 30.79882812 113.92578125 C30.14087239 107.42377506 30.14087239 107.42377506 29 101 C28.34 100.67 27.68 100.34 27 100 C26.7834375 100.53367187 26.566875 101.06734375 26.34375 101.6171875 C24.51062807 104.86778162 22.04580067 107.42890986 19.5 110.125 C18.68934082 110.98822876 18.68934082 110.98822876 17.86230469 111.86889648 C16.76048175 113.03767835 15.65600461 114.20396402 14.54882812 115.36767578 C13.20365542 116.78536568 11.87384929 118.21760562 10.546875 119.65234375 C-0.00743259 130.72718691 -12.81246176 139.36667268 -26 147 C-26.78568359 147.45906738 -27.57136719 147.91813477 -28.38085938 148.39111328 C-80.84199212 179 -80.84199212 179 -101 179 C-101 178.34 -101 177.68 -101 177 C-100.43829102 176.72438232 -99.87658203 176.44876465 -99.29785156 176.16479492 C-64.83716983 159.21055891 -31.38939864 140.19392572 -2.63085938 114.45898438 C-1.53782155 113.48114096 -0.44009224 112.5085181 0.66210938 111.54101562 C7.06110702 105.92220057 13.09515433 100.06004338 18.75 93.6875 C19.26385254 93.12498535 19.77770508 92.5624707 20.30712891 91.98291016 C23.63985149 88.10974607 24.81039383 85.25564615 25 80 C24.66485552 75.60960726 23.81072236 71.32550039 23 67 C22.85046875 66.04738281 22.7009375 65.09476562 22.546875 64.11328125 C19.62619453 48.48764076 12.08962084 33.00654075 4.42504883 19.17260742 C2.71667778 15.98170255 1.78382693 13.25134001 1.4140625 9.6875 C1.39055164 5.95469197 1.39055164 5.95469197 -1.0625 4 C-1.701875 3.67 -2.34125 3.34 -3 3 C-2.01 2.67 -1.02 2.34 0 2 C0 1.34 0 0.68 0 0 Z " fill="#6350AD" transform="translate(916,301)"/>
<path d="M0 0 C0.98484375 -0.00128906 1.9696875 -0.00257813 2.984375 -0.00390625 C4.02078125 -0.00003906 5.0571875 0.00382813 6.125 0.0078125 C7.67960937 0.00201172 7.67960937 0.00201172 9.265625 -0.00390625 C10.25046875 -0.00261719 11.2353125 -0.00132812 12.25 0 C13.16007812 0.00112793 14.07015625 0.00225586 15.0078125 0.00341797 C17.125 0.1328125 17.125 0.1328125 18.125 1.1328125 C18.22270201 2.5599487 18.25131695 3.9918868 18.25198364 5.42236328 C18.25480347 6.34784973 18.25762329 7.27333618 18.26052856 8.22686768 C18.25850433 9.25028259 18.2564801 10.27369751 18.25439453 11.328125 C18.25614685 12.3995575 18.25789917 13.47098999 18.25970459 14.57489014 C18.26412553 18.13588047 18.26118426 21.69682161 18.2578125 25.2578125 C18.25848547 27.72021494 18.25945544 30.18261732 18.26071167 32.64501953 C18.26218897 37.81348298 18.26003305 42.98192918 18.25537109 48.15039062 C18.2496738 54.79221977 18.25295263 61.43400852 18.25894356 68.07583618 C18.2625483 73.16284492 18.26141099 78.249844 18.25881577 83.33685303 C18.25814625 85.7866008 18.25897575 88.23634943 18.26129532 90.68609619 C18.26382042 94.1032546 18.25998326 97.52034657 18.25439453 100.9375 C18.25641876 101.96091492 18.25844299 102.98432983 18.26052856 104.03875732 C18.25629883 105.426987 18.25629883 105.426987 18.25198364 106.84326172 C18.25160662 107.65221893 18.25122959 108.46117615 18.25084114 109.29464722 C18.125 111.1328125 18.125 111.1328125 17.125 112.1328125 C15.50242456 112.2319782 13.87560169 112.26361027 12.25 112.265625 C11.26515625 112.26691406 10.2803125 112.26820313 9.265625 112.26953125 C8.22921875 112.26566406 7.1928125 112.26179687 6.125 112.2578125 C4.57039063 112.26361328 4.57039063 112.26361328 2.984375 112.26953125 C1.99953125 112.26824219 1.0146875 112.26695312 0 112.265625 C-0.91007812 112.26449707 -1.82015625 112.26336914 -2.7578125 112.26220703 C-4.875 112.1328125 -4.875 112.1328125 -5.875 111.1328125 C-5.97270201 109.7056763 -6.00131695 108.2737382 -6.00198364 106.84326172 C-6.00480347 105.91777527 -6.00762329 104.99228882 -6.01052856 104.03875732 C-6.00749222 102.50363495 -6.00749222 102.50363495 -6.00439453 100.9375 C-6.00614685 99.8660675 -6.00789917 98.79463501 -6.00970459 97.69073486 C-6.01412553 94.12974453 -6.01118426 90.56880339 -6.0078125 87.0078125 C-6.00848547 84.54541006 -6.00945544 82.08300768 -6.01071167 79.62060547 C-6.01218897 74.45214202 -6.01003305 69.28369582 -6.00537109 64.11523438 C-5.9996738 57.47340523 -6.00295263 50.83161648 -6.00894356 44.18978882 C-6.0125483 39.10278008 -6.01141099 34.015781 -6.00881577 28.92877197 C-6.00814625 26.4790242 -6.00897575 24.02927557 -6.01129532 21.57952881 C-6.01382042 18.1623704 -6.00998326 14.74527843 -6.00439453 11.328125 C-6.00641876 10.30471008 -6.00844299 9.28129517 -6.01052856 8.22686768 C-6.00770874 7.30138123 -6.00488892 6.37589478 -6.00198364 5.42236328 C-6.00160662 4.61340607 -6.00122959 3.80444885 -6.00084114 2.97097778 C-5.74111608 -0.82283394 -3.21869424 0.00398917 0 0 Z " fill="#F4EEE5" transform="translate(439.875,674.8671875)"/>
<path d="M0 0 C3.980625 -0.061875 7.96125 -0.12375 12.0625 -0.1875 C13.92467163 -0.22846802 13.92467163 -0.22846802 15.82446289 -0.27026367 C21.99771598 -0.31662663 26.61123622 -0.12800318 32 3 C37.30812517 8.72718768 37.35180636 12.85119927 37.2734375 20.5 C36.89740241 25.31324912 36.1596485 27.35425173 33 31 C26.46981104 34.86369513 19.97270159 34.34394631 12.5625 34.1875 C8.416875 34.125625 4.27125 34.06375 0 34 C0 22.78 0 11.56 0 0 Z " fill="#171428" transform="translate(833,696)"/>
<path d="M0 0 C1.60292156 3.00899311 2.69533461 6.01199223 3.75 9.25 C6.20821903 16.01913991 9.21543693 21.80807706 15.75 25.3125 C20.34718896 27.31708821 25.16557045 28.69232643 30 30 C26.78802521 33.21197479 22.49239664 34.09048693 18.26171875 35.5859375 C10.58408591 38.91444419 6.85380112 44.43170439 3.796875 51.96484375 C2.82230398 54.63118771 1.88727273 57.303484 1 60 C-0.90090635 57.14864047 -1.7221054 54.97794972 -2.75 51.75 C-5.70335801 43.54983381 -9.88493124 39.04685941 -17.609375 35.06640625 C-21.31663512 33.41267747 -25.10484234 32.1326345 -29 31 C-26.53332663 28.53332663 -24.65229337 28.20542395 -21.3125 27.25 C-13.43562273 24.66834405 -9.12377646 21.55795963 -5.25 14.1875 C-3.12984826 9.57634489 -1.4446264 4.86240105 0 0 Z " fill="#EDA933" transform="translate(573,204)"/>
<path d="M0 0 C4.81979268 4.26930874 7.54115145 12.89936062 9 19 C8.91333008 20.98242188 8.91333008 20.98242188 8 23 C5.41137695 24.46386719 5.41137695 24.46386719 1.98828125 25.796875 C1.38243698 26.0353717 0.77659271 26.27386841 0.15238953 26.51959229 C-1.1317491 27.02105251 -2.41891126 27.51482784 -3.70874023 28.00146484 C-5.67004672 28.74339769 -7.61918234 29.51199832 -9.56835938 30.28515625 C-20.00684481 34.32857832 -20.00684481 34.32857832 -26 34 C-27.37637745 31.11422066 -28.72198249 28.21508967 -30.0625 25.3125 C-30.45244141 24.49587891 -30.84238281 23.67925781 -31.24414062 22.83789062 C-32.74500609 19.55723779 -33.93236751 16.77831045 -34.24609375 13.16796875 C-32.16625502 9.54944055 -28.76073641 8.52305915 -25 7 C-23.84129395 6.52143555 -23.84129395 6.52143555 -22.65917969 6.03320312 C-20.2442067 5.06642311 -17.81473131 4.15231333 -15.375 3.25 C-14.14523437 2.77626953 -14.14523437 2.77626953 -12.890625 2.29296875 C-4.70218651 -0.74807513 -4.70218651 -0.74807513 0 0 Z " fill="#181529" transform="translate(710,391)"/>
<path d="M0 0 C2.17641248 2.18242466 3.74950133 4.64232691 5.375 7.25 C5.82488281 7.91902344 6.27476562 8.58804687 6.73828125 9.27734375 C10.7560146 15.49322908 10.7560146 15.49322908 10 20 C8.04394531 21.77685547 8.04394531 21.77685547 5.328125 23.3671875 C4.35359375 23.94210937 3.3790625 24.51703125 2.375 25.109375 C0.828125 25.98335938 0.828125 25.98335938 -0.75 26.875 C-1.76578125 27.48085938 -2.7815625 28.08671875 -3.828125 28.7109375 C-11.35753607 33.07007023 -11.35753607 33.07007023 -14.21386719 32.75854492 C-19.99136217 30.30492588 -23.725966 23.21222764 -26.46875 17.859375 C-27.16264707 15.43073524 -27.02024382 14.31499271 -26 12 C-22.94022663 9.29256417 -19.43295422 7.20656092 -16 5 C-15.11699219 4.39929688 -14.23398437 3.79859375 -13.32421875 3.1796875 C-12.47472656 2.62539063 -11.62523437 2.07109375 -10.75 1.5 C-9.98171875 0.9946875 -9.2134375 0.489375 -8.421875 -0.03125 C-5.03268971 -1.38692411 -3.43812865 -1.25504953 0 0 Z " fill="#18152A" transform="translate(797,351)"/>
<path d="M0 0 C1.90136719 0.1940918 1.90136719 0.1940918 4 1 C5.37207031 2.70239258 5.37207031 2.70239258 6.578125 4.89453125 C7.23554687 6.08079102 7.23554687 6.08079102 7.90625 7.29101562 C8.3496875 8.12310547 8.793125 8.95519531 9.25 9.8125 C9.93835938 11.04323242 9.93835938 11.04323242 10.640625 12.29882812 C14 18.46268136 14 18.46268136 14 23 C11.10485806 24.29322032 8.20876516 25.58429741 5.3125 26.875 C4.49587891 27.23980469 3.67925781 27.60460937 2.83789062 27.98046875 C1.25277655 28.68639 -0.33425549 29.38802309 -1.92333984 30.08496094 C-3.52600275 30.79114252 -5.11876156 31.51982861 -6.70703125 32.2578125 C-9.54708565 33.17708053 -12.03491023 33.13791115 -15 33 C-15.98484108 31.25318707 -16.96266187 29.5024149 -17.9375 27.75 C-18.48277344 26.77546875 -19.02804687 25.8009375 -19.58984375 24.796875 C-21.99582717 20.0248968 -22.10303366 16.35775058 -22 11 C-21.36908447 10.70230713 -20.73816895 10.40461426 -20.08813477 10.09790039 C-17.24520648 8.7549767 -14.40383849 7.40878385 -11.5625 6.0625 C-10.56927734 5.59392578 -9.57605469 5.12535156 -8.55273438 4.64257812 C-7.60849609 4.19462891 -6.66425781 3.74667969 -5.69140625 3.28515625 C-4.81685791 2.87144775 -3.94230957 2.45773926 -3.04125977 2.03149414 C-1.05916587 1.16323059 -1.05916587 1.16323059 0 0 Z " fill="#181429" transform="translate(751,371)"/>
<path d="M0 0 C2.21362712 1.85059227 3.98392047 3.55378196 5.875 5.6875 C6.38546875 6.21794922 6.8959375 6.74839844 7.421875 7.29492188 C9.540098 9.62782963 10.92643957 11.33381184 11.27734375 14.51171875 C9.28538665 18.39207555 6.13214792 20.54070848 2.6875 23.125 C2.01009766 23.64964844 1.33269531 24.17429687 0.63476562 24.71484375 C-0.66876715 25.72148196 -1.97986399 26.71842235 -3.29931641 27.70410156 C-4.63478047 28.72170754 -5.91382903 29.81339016 -7.16796875 30.9296875 C-9 32 -9 32 -11.453125 32.015625 C-14.92298037 30.63194034 -16.43291306 28.65802186 -18.75 25.75 C-19.52859375 24.79609375 -20.3071875 23.8421875 -21.109375 22.859375 C-22.9445116 20.08392047 -23.6420938 18.26887663 -24 15 C-19.60503841 10.97023579 -15.06008185 7.17143417 -10.3125 3.5625 C-9.42175781 2.88316406 -8.53101563 2.20382812 -7.61328125 1.50390625 C-4.6055314 -0.22701108 -3.39018366 -0.77310814 0 0 Z " fill="#18152B" transform="translate(869,305)"/>
<path d="M0 0 C2.55327104 6.83911885 4.5644718 12.66186666 4 20 C-13.34683733 27.27090841 -13.34683733 27.27090841 -21 27 C-24.01651083 20.32137824 -26.57534294 14.36072234 -27 7 C-22.18239393 4.88373893 -17.3512446 2.95931979 -12.375 1.25 C-11.73304688 1.01667969 -11.09109375 0.78335937 -10.4296875 0.54296875 C-6.57202913 -0.77717254 -3.91986738 -1.23152922 0 0 Z " fill="#17142A" transform="translate(655,414)"/>
<path d="M0 0 C3.57592777 2.25819292 5.85626734 5.1068862 8.4296875 8.42578125 C8.94015625 9.04259766 9.450625 9.65941406 9.9765625 10.29492188 C12.10227835 12.99802812 13.46275173 14.80376893 13.85546875 18.26171875 C11.78659298 22.00184852 8.562857 23.45846737 4.8671875 25.42578125 C3.80467773 26.03583008 3.80467773 26.03583008 2.72070312 26.65820312 C-1.36783497 28.9044452 -4.68103996 30.58810359 -9.4453125 29.61328125 C-11.45703125 27.6015625 -11.45703125 27.6015625 -13.1328125 24.92578125 C-13.69355469 24.05566406 -14.25429688 23.18554688 -14.83203125 22.2890625 C-15.36441406 21.40605469 -15.89679687 20.52304687 -16.4453125 19.61328125 C-17.02925781 18.76121094 -17.61320313 17.90914063 -18.21484375 17.03125 C-19.4453125 14.61328125 -19.4453125 14.61328125 -19.4609375 12.5546875 C-17.95801469 9.68179275 -15.84272477 8.38768896 -13.1953125 6.55078125 C-12.24140625 5.87917969 -11.2875 5.20757812 -10.3046875 4.515625 C-9.36109375 3.88785156 -8.4175 3.26007813 -7.4453125 2.61328125 C-6.60484375 1.99582031 -5.764375 1.37835938 -4.8984375 0.7421875 C-2.4453125 -0.38671875 -2.4453125 -0.38671875 0 0 Z " fill="#171429" transform="translate(829.4453125,329.38671875)"/>
<path d="M0 0 C1.78070481 2.67105721 2.50435396 4.37383188 3.375 7.375 C4.69516658 11.34837942 5.81331995 14.14015893 9 17 C11.51593001 18.18348024 14.03891054 19.17916387 16.66015625 20.10546875 C19 21 19 21 22 23 C21.19175781 23.36351562 20.38351562 23.72703125 19.55078125 24.1015625 C9.51244982 28.82405859 5.59617723 32.58020488 1.69921875 43.0234375 C1.46847656 43.67570312 1.23773437 44.32796875 1 45 C-0.74176628 42.38735057 -1.9546243 39.96619069 -3.25 37.125 C-7.21438826 29.19622348 -13.04793008 26.1631567 -21 23 C-18.87726555 20.87726555 -17.44284252 20.27574453 -14.6875 19.1875 C-6.53243222 15.57317396 -4.08519635 10.52808545 -0.91796875 2.44921875 C-0.46357422 1.23685547 -0.46357422 1.23685547 0 0 Z " fill="#EDAD3C" transform="translate(526,286)"/>
<path d="M0 0 C3.8007631 4.36383912 5.70597552 11.2361699 6.3125 16.9375 C6 19 6 19 4 21 C0.78112531 22.27772425 -2.55739063 23.19873143 -5.875 24.1875 C-6.78636719 24.47302734 -7.69773437 24.75855469 -8.63671875 25.05273438 C-9.51714844 25.31763672 -10.39757812 25.58253906 -11.3046875 25.85546875 C-12.10890137 26.09934326 -12.91311523 26.34321777 -13.74169922 26.59448242 C-16.18274744 27.03281551 -17.66940654 26.78053209 -20 26 C-21.81774185 18.90215087 -23.43230491 12.34918342 -23 5 C-5.8549715 -0.9531349 -5.8549715 -0.9531349 0 0 Z " fill="#18152B" transform="translate(609,426)"/>
<path d="M0 0 C2.78898838 2.78898838 3.58763716 6.11990049 4.8203125 9.78125 C5.21559647 10.9351825 5.21559647 10.9351825 5.61886597 12.11242676 C6.17464587 13.73887635 6.72756257 15.36630673 7.27783203 16.99462891 C8.12239466 19.49229511 8.97645548 21.9865564 9.83203125 24.48046875 C10.37035582 26.05970364 10.90813482 27.63912463 11.4453125 29.21875 C11.70152374 29.9677356 11.95773499 30.71672119 12.22171021 31.48840332 C14 36.76804346 14 36.76804346 14 39 C5.09 39 -3.82 39 -13 39 C-11.65887775 32.96494989 -10.29667467 27.65743918 -8.0625 22 C-7.52609366 20.60855418 -6.9909276 19.21662958 -6.45703125 17.82421875 C-6.2038916 17.16599121 -5.95075195 16.50776367 -5.68994141 15.82958984 C-4.5629192 12.84094709 -3.57342814 9.81149107 -2.58984375 6.7734375 C-1.82510772 4.47416495 -0.93686267 2.23405713 0 0 Z " fill="#161328" transform="translate(946,705)"/>
<path d="M0 0 C4.13621084 3.3810038 7.81316569 6.66590534 11 11 C6.57631552 21.12085389 -5.04731388 26.23219084 -14.33056641 31.12011719 C-15.64201573 31.81132271 -16.9391856 32.52962831 -18.23046875 33.2578125 C-20 34 -20 34 -24 34 C-23.55785693 28.42057559 -22.2132991 25.1994497 -18.9375 20.6875 C-18.5355542 20.1313501 -18.1336084 19.5752002 -17.71948242 19.00219727 C-16.49527511 17.32254924 -15.2505675 15.6600808 -14 14 C-13.28585937 13.03578125 -12.57171875 12.0715625 -11.8359375 11.078125 C-8.28725681 6.44702819 -5.13466376 2.82406507 0 0 Z " fill="#ECAC3D" transform="translate(978,297)"/>
<path d="M0 0 C0.66 0 1.32 0 2 0 C2.17015625 0.66386719 2.3403125 1.32773437 2.515625 2.01171875 C4.76106438 10.35162966 4.76106438 10.35162966 10.89453125 16.1484375 C14.21185499 17.88403174 17.33865586 19.18273568 21 20 C21 20.66 21 21.32 21 22 C20.40832031 22.24234375 19.81664062 22.4846875 19.20703125 22.734375 C10.76831129 26.31360369 6.73315983 29.65337191 3 38 C2.33890625 39.33610526 1.67378083 40.67024753 1 42 C0.70867188 41.19175781 0.41734375 40.38351562 0.1171875 39.55078125 C-3.18953221 30.87007741 -3.18953221 30.87007741 -10 25 C-12.64507155 23.83291599 -15.24498306 22.90250555 -18 22 C-18 21.34 -18 20.68 -18 20 C-17.40832031 19.76925781 -16.81664062 19.53851562 -16.20703125 19.30078125 C-8.69395568 16.19995234 -4.20884495 12.70122788 -1 5 C-0.30092586 2.26427415 -0.30092586 2.26427415 0 0 Z " fill="#ECAC3B" transform="translate(982,523)"/>
<path d="M0 0 C9.10959165 -0.02312545 18.21917326 -0.04091612 27.3287878 -0.05181217 C31.55831371 -0.05704056 35.7878196 -0.0641374 40.01733398 -0.07543945 C44.09568543 -0.08626991 48.17401757 -0.09227717 52.25238228 -0.09487724 C53.81177639 -0.09673121 55.3711694 -0.10035127 56.93055534 -0.10573006 C59.10729162 -0.11294262 61.28394714 -0.11399085 63.46069336 -0.11352539 C65.32267616 -0.11685631 65.32267616 -0.11685631 67.22227478 -0.12025452 C70 0 70 0 71 1 C71.09880797 2.47652664 71.13079245 3.95767236 71.1328125 5.4375 C71.13410156 6.33210937 71.13539062 7.22671875 71.13671875 8.1484375 C71.13285156 9.08945312 71.12898438 10.03046875 71.125 11 C71.12886719 11.94101562 71.13273437 12.88203125 71.13671875 13.8515625 C71.13542969 14.74617187 71.13414063 15.64078125 71.1328125 16.5625 C71.13168457 17.38878906 71.13055664 18.21507812 71.12939453 19.06640625 C71 21 71 21 70 22 C68.58774954 22.0928726 67.17091066 22.11746772 65.75561523 22.11352539 C64.40432777 22.11341209 64.40432777 22.11341209 63.02574158 22.11329651 C62.04658279 22.10813522 61.06742401 22.10297394 60.05859375 22.09765625 C59.06118668 22.0962413 58.0637796 22.09482635 57.03614807 22.09336853 C53.83656876 22.08775114 50.63705831 22.07519571 47.4375 22.0625 C45.27408955 22.05748724 43.11067801 22.05292395 40.94726562 22.04882812 C35.63148675 22.03777607 30.31574829 22.02102104 25 22 C25.33 21.34 25.66 20.68 26 20 C40.19 20 54.38 20 69 20 C69 13.73 69 7.46 69 1 C46.89 1.33 24.78 1.66 2 2 C2 37.64 2 73.28 2 110 C24.77 110.33 47.54 110.66 71 111 C71 104.73 71 98.46 71 92 C55.82 92 40.64 92 25 92 C25 91.67 25 91.34 25 91 C40.51 91 56.02 91 72 91 C72 97.93 72 104.86 72 112 C62.76002129 112.02255261 53.52006072 112.04091601 44.28006077 112.05181217 C39.99000085 112.05704061 35.69996067 112.06413753 31.40991211 112.07543945 C27.273206 112.08626975 23.13651892 112.09227714 18.99979973 112.09487724 C17.41807696 112.09673124 15.83635529 112.10035136 14.25464058 112.10573006 C12.04677162 112.1129424 9.83898227 112.11399086 7.63110352 112.11352539 C5.74247337 112.11685631 5.74247337 112.11685631 3.81568909 112.12025452 C1 112 1 112 0 111 C-0.09558036 109.55786001 -0.12188394 108.11105921 -0.12025452 106.66575623 C-0.12162918 105.73041046 -0.12300385 104.7950647 -0.12442017 103.83137512 C-0.12082489 102.79703842 -0.11722961 101.76270172 -0.11352539 100.69702148 C-0.11367142 99.61422913 -0.11381744 98.53143677 -0.1139679 97.41583252 C-0.11326823 93.81756626 -0.10547333 90.21935103 -0.09765625 86.62109375 C-0.09579226 84.13387582 -0.09436827 81.64665752 -0.09336853 79.15943909 C-0.0899335 73.26978809 -0.08204277 67.3801561 -0.07201904 61.49051291 C-0.05976246 54.12974626 -0.05437791 46.76897736 -0.04882812 39.40820312 C-0.03808815 26.27212602 -0.02120089 13.13606417 0 0 Z " fill="#7361B5" transform="translate(1123,675)"/>
<path d="M0 0 C3.78491709 0.89448236 5.53884447 2.53127525 8 5.47265625 C9.03921287 8.54583654 9.36815545 11.24691323 9 14.47265625 C7.23496686 17.39409042 6.04152365 18.95189442 3 20.47265625 C-2.15434412 20.97964092 -2.15434412 20.97964092 -5 20.47265625 C-7.9375 18.03515625 -7.9375 18.03515625 -10 15.47265625 C-10.33 15.14265625 -10.66 14.81265625 -11 14.47265625 C-11.68235945 9.75462806 -11.64102506 6.45422587 -9 2.41015625 C-5.87519393 0.39205233 -3.73890746 -0.2761693 0 0 Z " fill="#171524" transform="translate(1034,243.52734375)"/>
<path d="M0 0 C-12.59895227 10.99057538 -31.42108437 16.85753012 -48 16 C-48.56640625 14.1015625 -48.56640625 14.1015625 -49 12 C-46.36030548 7.96282014 -41.31699872 7.28444542 -36.87109375 6.32421875 C-35.17146484 6.00904297 -35.17146484 6.00904297 -33.4375 5.6875 C-28.75451368 4.80307649 -24.1190134 3.80527568 -19.4921875 2.66015625 C-18.55189697 2.4278833 -17.61160645 2.19561035 -16.64282227 1.95629883 C-14.77936774 1.49127908 -12.91779299 1.01864991 -11.05834961 0.5378418 C-10.19991455 0.32426025 -9.34147949 0.11067871 -8.45703125 -0.109375 C-7.69366455 -0.30499023 -6.93029785 -0.50060547 -6.14379883 -0.70214844 C-3.80063814 -1.02769861 -2.23490539 -0.72140756 0 0 Z " fill="#3F336F" transform="translate(795,559)"/>
<path d="M0 0 C4 0 4 0 6.39453125 2.37890625 C7.19246094 3.42949219 7.99039063 4.48007812 8.8125 5.5625 C9.62332031 6.59503906 10.43414063 7.62757813 11.26953125 8.69140625 C13.39294335 12.7512935 13.21404468 14.63766998 12 19 C10.5770017 21.38410534 8.93469658 22.96608821 7 25 C3.32649581 24.76510453 2.14657292 24.1519325 -0.45703125 21.453125 C-1.62298828 19.86757813 -1.62298828 19.86757813 -2.8125 18.25 C-3.99779297 16.67992187 -3.99779297 16.67992187 -5.20703125 15.078125 C-7.03801867 11.93473048 -7.63808732 10.54290388 -7 7 C-4.625 4.3125 -4.625 4.3125 -2 2 C-1.34 1.34 -0.68 0.68 0 0 Z " fill="#19152D" transform="translate(886,285)"/>
<path d="M0 0 C3.14581423 -0.02888514 6.29159469 -0.04675923 9.4375 -0.0625 C10.33533203 -0.07087891 11.23316406 -0.07925781 12.15820312 -0.08789062 C13.01220703 -0.09111328 13.86621094 -0.09433594 14.74609375 -0.09765625 C15.93223267 -0.10551147 15.93223267 -0.10551147 17.14233398 -0.11352539 C19 0 19 0 20 1 C20.09770201 2.4271362 20.12631695 3.8590743 20.12698364 5.28955078 C20.12980347 6.21503723 20.13262329 7.14052368 20.13552856 8.09405518 C20.13350433 9.11747009 20.1314801 10.14088501 20.12939453 11.1953125 C20.13114685 12.266745 20.13289917 13.33817749 20.13470459 14.44207764 C20.13912553 18.00306797 20.13618426 21.56400911 20.1328125 25.125 C20.13348547 27.58740244 20.13445544 30.04980482 20.13571167 32.51220703 C20.13718897 37.68067048 20.13503305 42.84911668 20.13037109 48.01757812 C20.1246738 54.65940727 20.12795263 61.30119602 20.13394356 67.94302368 C20.1375483 73.03003242 20.13641099 78.1170315 20.13381577 83.20404053 C20.13314625 85.6537883 20.13397575 88.10353693 20.13629532 90.55328369 C20.13882042 93.9704421 20.13498326 97.38753407 20.12939453 100.8046875 C20.13141876 101.82810242 20.13344299 102.85151733 20.13552856 103.90594482 C20.13129883 105.2941745 20.13129883 105.2941745 20.12698364 106.71044922 C20.12660662 107.51940643 20.12622959 108.32836365 20.12584114 109.16183472 C20 111 20 111 19 112 C11.74 112 4.48 112 -3 112 C-3 75.7 -3 39.4 -3 2 C-2.67 2 -2.34 2 -2 2 C-2 37.64 -2 73.28 -2 110 C7.9 109.505 7.9 109.505 18 109 C18 73.69 18 38.38 18 2 C11.73 2 5.46 2 -1 2 C-0.67 1.34 -0.34 0.68 0 0 Z " fill="#FDFCFA" transform="translate(438,675)"/>
<path d="M0 0 C0 0.33 0 0.66 0 1 C-4.5397374 1.54448317 -9.08076836 2.07636909 -13.62304688 2.59912109 C-15.15074507 2.776432 -16.67812297 2.95653693 -18.20507812 3.14013672 C-47.39015118 6.64156304 -76.39999981 7.2527865 -105.75 7 C-111.40312245 6.95239122 -117.05614364 6.91206066 -122.70941925 6.88812256 C-124.9364623 6.87527637 -127.16314865 6.85033694 -129.39007568 6.82470703 C-130.74149276 6.81745073 -132.09291296 6.81074619 -133.44433594 6.8046875 C-134.6180072 6.79421387 -135.79167847 6.78374023 -137.00091553 6.77294922 C-139.90833044 6.99306 -141.55019905 7.47831209 -144 9 C-144.66 7.68 -145.32 6.36 -146 5 C-147.19625 5.04125 -148.3925 5.0825 -149.625 5.125 C-156.1246457 5.125 -162.64762695 4.366646 -169 3 C-169.66 2.34 -170.32 1.68 -171 1 C-164.04493741 0.77905188 -157.37092183 1.82493054 -150.50390625 2.84570312 C-133.75835803 5.18733845 -116.81513848 5.20499821 -99.9375 5.1875 C-98.94031952 5.18722809 -97.94313904 5.18695618 -96.91574097 5.18667603 C-71.5654107 5.15515925 -46.45772667 3.67631455 -21.25610352 0.96557617 C-14.13554244 0.21382979 -7.1603265 -0.18104261 0 0 Z " fill="#140B07" transform="translate(716,546)"/>
<path d="M0 0 C1.084021 0.00523682 2.16804199 0.01047363 3.28491211 0.01586914 C5.03964844 0.02070312 5.03964844 0.02070312 6.82983398 0.02563477 C8.67738281 0.03820312 8.67738281 0.03820312 10.56225586 0.05102539 C12.41560547 0.05779297 12.41560547 0.05779297 14.30639648 0.06469727 C17.37089703 0.07652931 20.43530307 0.09301366 23.49975586 0.11352539 C26.85656516 6.43469864 30.18673599 12.76929855 33.49975586 19.11352539 C33.95286133 19.97751953 34.4059668 20.84151367 34.87280273 21.73168945 C36.15541675 24.18673698 37.42342613 26.64876574 38.68725586 29.11352539 C39.08549561 29.87197754 39.48373535 30.63042969 39.89404297 31.41186523 C40.84010017 33.27505993 41.67992144 35.19144573 42.49975586 37.11352539 C42.16975586 38.10352539 41.83975586 39.09352539 41.49975586 40.11352539 C40.73888574 38.57216386 39.97824998 37.03068638 39.21850586 35.48876953 C38.51899903 34.08959027 37.80627246 32.69695712 37.08178711 31.31054688 C34.88755612 27.08085371 33.00623383 22.88568168 31.36303711 18.41040039 C28.12299736 9.99733592 28.12299736 9.99733592 22.49975586 3.11352539 C14.84834495 0.36012198 6.44640455 1.16765518 -1.50024414 2.11352539 C-1.49500732 2.84087891 -1.48977051 3.56823242 -1.484375 4.31762695 C-1.3172773 31.92470491 -1.90221466 59.51403222 -2.50024414 87.11352539 C-2.83024414 87.11352539 -3.16024414 87.11352539 -3.50024414 87.11352539 C-3.52336683 75.91779295 -3.54115885 64.72206615 -3.55205631 53.52631474 C-3.5572853 48.32824424 -3.56438324 43.13019003 -3.57568359 37.93212891 C-3.5865119 32.92010271 -3.59252085 27.90809221 -3.59512138 22.89605522 C-3.59697574 20.97940257 -3.60059654 19.06275082 -3.6059742 17.14610481 C-3.61318389 14.47124467 -3.61423511 11.79645026 -3.61376953 9.12158203 C-3.61736481 8.32101379 -3.62096008 7.52044556 -3.62466431 6.69561768 C-3.61227968 0.16401817 -3.61227968 0.16401817 0 0 Z " fill="#FAF9F7" transform="translate(575.500244140625,674.886474609375)"/>
<path d="M0 0 C9.10959165 -0.02312545 18.21917326 -0.04091612 27.3287878 -0.05181217 C31.55831371 -0.05704056 35.7878196 -0.0641374 40.01733398 -0.07543945 C44.09568543 -0.08626991 48.17401757 -0.09227717 52.25238228 -0.09487724 C53.81177639 -0.09673121 55.3711694 -0.10035127 56.93055534 -0.10573006 C59.10729162 -0.11294262 61.28394714 -0.11399085 63.46069336 -0.11352539 C65.32267616 -0.11685631 65.32267616 -0.11685631 67.22227478 -0.12025452 C70 0 70 0 71 1 C71.09880797 2.47652664 71.13079245 3.95767236 71.1328125 5.4375 C71.13410156 6.33210937 71.13539062 7.22671875 71.13671875 8.1484375 C71.13285156 9.08945312 71.12898438 10.03046875 71.125 11 C71.12886719 11.94101562 71.13273437 12.88203125 71.13671875 13.8515625 C71.13542969 14.74617187 71.13414063 15.64078125 71.1328125 16.5625 C71.13168457 17.38878906 71.13055664 18.21507812 71.12939453 19.06640625 C71 21 71 21 70 22 C68.58774954 22.0928726 67.17091066 22.11746772 65.75561523 22.11352539 C64.40432777 22.11341209 64.40432777 22.11341209 63.02574158 22.11329651 C62.04658279 22.10813522 61.06742401 22.10297394 60.05859375 22.09765625 C59.06118668 22.0962413 58.0637796 22.09482635 57.03614807 22.09336853 C53.83656876 22.08775114 50.63705831 22.07519571 47.4375 22.0625 C45.27408955 22.05748724 43.11067801 22.05292395 40.94726562 22.04882812 C35.63148675 22.03777607 30.31574829 22.02102104 25 22 C25.33 21.34 25.66 20.68 26 20 C40.19 20 54.38 20 69 20 C69 13.73 69 7.46 69 1 C46.23 1 23.46 1 0 1 C0 0.67 0 0.34 0 0 Z " fill="#6C5BA8" transform="translate(1123,675)"/>
<path d="M0 0 C2.3125 0.8125 2.3125 0.8125 4 2 C2.94901998 4.98611783 2.08347124 7.35726282 -0.72851562 9.02539062 C-2.88038209 9.87334568 -5.03522247 10.58367377 -7.25 11.25 C-8.35794922 11.61351562 -8.35794922 11.61351562 -9.48828125 11.984375 C-11.65083664 12.68615664 -13.82198248 13.34800773 -16 14 C-17.25296875 14.38671875 -18.5059375 14.7734375 -19.796875 15.171875 C-23 16 -23 16 -27 16 C-27 15.34 -27 14.68 -27 14 C-26.35973877 13.68248779 -25.71947754 13.36497559 -25.05981445 13.0378418 C-22.14298075 11.58985635 -19.22773055 10.13871019 -16.3125 8.6875 C-14.80139648 7.93823242 -14.80139648 7.93823242 -13.25976562 7.17382812 C-12.28330078 6.68720703 -11.30683594 6.20058594 -10.30078125 5.69921875 C-9.40528564 5.25408936 -8.50979004 4.80895996 -7.5871582 4.3503418 C-4.93836709 3.0161904 -4.93836709 3.0161904 -2.31323242 1.28051758 C-1.54986572 0.85794678 -0.78649902 0.43537598 0 0 Z " fill="#5D4CA4" transform="translate(842,464)"/>
<path d="M0 0 C0 0.33 0 0.66 0 1 C-3.3 1 -6.6 1 -10 1 C-10 1.66 -10 2.32 -10 3 C-16.95189613 3.02567854 -23.90377971 3.04300232 -30.85571289 3.05493164 C-33.21313941 3.05991291 -35.57056293 3.06670035 -37.92797852 3.07543945 C-51.3240721 3.1238008 -64.6394643 3.03890551 -78 2 C-78 1.67 -78 1.34 -78 1 C-70.48787604 0.86776638 -62.97572341 0.73727369 -55.4635334 0.60884857 C-51.97323276 0.54912851 -48.48294345 0.48886586 -44.99267578 0.42724609 C-29.99461918 0.1628351 -15.00082757 -0.09274082 0 0 Z " fill="#F3C05D" transform="translate(671,520)"/>
<path d="M0 0 C0.33 0 0.66 0 1 0 C1.02465288 4.68139254 1.04283739 9.36274759 1.05493164 14.04418945 C1.05997157 15.63794614 1.0668035 17.23169819 1.07543945 18.82543945 C1.08751999 21.11150253 1.09323155 23.39750467 1.09765625 25.68359375 C1.10281754 26.40026718 1.10797882 27.11694061 1.11329651 27.85533142 C1.11349263 29.57063672 1.06192007 31.28581266 1 33 C-0.62200515 34.62200515 -2.42023031 34.1299075 -4.65625 34.1328125 C-6.06583984 34.13474609 -6.06583984 34.13474609 -7.50390625 34.13671875 C-8.49261719 34.13285156 -9.48132813 34.12898437 -10.5 34.125 C-11.48871094 34.12886719 -12.47742188 34.13273438 -13.49609375 34.13671875 C-14.43582031 34.13542969 -15.37554688 34.13414062 -16.34375 34.1328125 C-17.21193359 34.13168457 -18.08011719 34.13055664 -18.97460938 34.12939453 C-21 34 -21 34 -22 33 C-22.08631874 31.65732587 -22.10706473 30.31025678 -22.09765625 28.96484375 C-22.09443359 28.15595703 -22.09121094 27.34707031 -22.08789062 26.51367188 C-22.07951172 25.66353516 -22.07113281 24.81339844 -22.0625 23.9375 C-22.05798828 23.08349609 -22.05347656 22.22949219 -22.04882812 21.34960938 C-22.03700373 19.23304337 -22.01906769 17.11651315 -22 15 C-21.34 15 -20.68 15 -20 15 C-20 20.61 -20 26.22 -20 32 C-13.4 32 -6.8 32 0 32 C0 21.44 0 10.88 0 0 Z " fill="#FDFCF9" transform="translate(593,753)"/>
<path d="M0 0 C-3.5951122 2.07342291 -7.37530391 2.91782226 -11.38671875 3.8046875 C-12.11316589 3.96889694 -12.83961304 4.13310638 -13.58807373 4.30229187 C-15.9530458 4.83355804 -18.31995535 5.3553256 -20.6875 5.875 C-21.49124054 6.05263885 -22.29498108 6.23027771 -23.12307739 6.41329956 C-33.5220988 8.70408233 -43.92592686 10.84765955 -54.4375 12.5625 C-55.44707764 12.73056152 -56.45665527 12.89862305 -57.49682617 13.07177734 C-58.88865112 13.28568115 -58.88865112 13.28568115 -60.30859375 13.50390625 C-61.49666626 13.68675171 -61.49666626 13.68675171 -62.70874023 13.87329102 C-65.29863562 14.01651485 -67.48652524 13.60480226 -70 13 C-70 12.67 -70 12.34 -70 12 C-69.05608398 11.84966309 -68.11216797 11.69932617 -67.13964844 11.54443359 C-62.67493912 10.83040486 -58.21209191 10.10519672 -53.75 9.375 C-52.94077087 9.24260925 -52.13154175 9.11021851 -51.29779053 8.97381592 C-38.99461332 6.94871058 -26.81412729 4.61916573 -14.65917969 1.82958984 C-13.59860352 1.58934082 -12.53802734 1.3490918 -11.4453125 1.1015625 C-10.53281738 0.88838379 -9.62032227 0.67520508 -8.68017578 0.45556641 C-5.74359884 -0.04358213 -2.97317767 -0.07696311 0 0 Z " fill="#1A0F0B" transform="translate(809,529)"/>
<path d="M0 0 C0.98339355 0.01981934 1.96678711 0.03963867 2.97998047 0.06005859 C4.04861328 0.07166016 5.11724609 0.08326172 6.21826172 0.09521484 C7.33330078 0.13259766 8.44833984 0.16998047 9.59716797 0.20849609 C11.28132812 0.22976563 11.28132812 0.22976563 12.99951172 0.25146484 C21.29051772 0.40184585 21.29051772 0.40184585 22.47216797 1.58349609 C22.56075443 4.32243694 22.58740276 7.03602879 22.56982422 9.77490234 C22.56840927 10.59474106 22.56699432 11.41457977 22.5655365 12.25926208 C22.55992086 14.88820992 22.54736576 17.51707383 22.53466797 20.14599609 C22.52965498 21.92398966 22.52509173 23.70198455 22.52099609 25.47998047 C22.50994635 29.84785155 22.49267128 34.21565957 22.47216797 38.58349609 C22.14216797 38.58349609 21.81216797 38.58349609 21.47216797 38.58349609 C21.44711182 37.66012451 21.42205566 36.73675293 21.39624023 35.78540039 C21.30107751 32.35803193 21.20184583 28.93083149 21.09985352 25.50366211 C21.05655467 24.02063595 21.01487598 22.53756156 20.97485352 21.05444336 C20.91702839 18.92205271 20.85336965 16.78990367 20.78857422 14.65771484 C20.7519165 13.37469482 20.71525879 12.0916748 20.67749023 10.76977539 C20.60655563 7.56238059 20.60655563 7.56238059 19.47216797 4.58349609 C19.80216797 3.92349609 20.13216797 3.26349609 20.47216797 2.58349609 C16.86659481 2.6062625 13.26420607 2.68351819 9.65966797 2.77099609 C8.63550781 2.77679687 7.61134766 2.78259766 6.55615234 2.78857422 C3.77120747 2.87075292 1.19461989 2.98675489 -1.52783203 3.58349609 C-3.83304684 5.92601226 -3.83304684 5.92601226 -4.52783203 8.58349609 C-5.52783203 5.58349609 -5.52783203 5.58349609 -4.43457031 2.92871094 C-2.52783203 0.58349609 -2.52783203 0.58349609 0 0 Z " fill="#FBFAF8" transform="translate(662.52783203125,674.41650390625)"/>
<path d="M0 0 C0.33 0 0.66 0 1 0 C1.33 4.95 1.66 9.9 2 15 C2.33 15 2.66 15 3 15 C3.05794812 19.27077656 3.09357874 23.54145236 3.125 27.8125 C3.14175781 29.02744141 3.15851562 30.24238281 3.17578125 31.49414062 C3.18222656 32.65751953 3.18867187 33.82089844 3.1953125 35.01953125 C3.20578613 36.09307861 3.21625977 37.16662598 3.22705078 38.27270508 C3 41 3 41 1 44 C-0.14315747 41.71368506 -0.12112732 40.45652594 -0.11352539 37.91748047 C-0.11344986 37.07675995 -0.11337433 36.23603943 -0.11329651 35.36984253 C-0.10813522 34.46146637 -0.10297394 33.55309021 -0.09765625 32.6171875 C-0.0962413 31.68778351 -0.09482635 30.75837952 -0.09336853 29.80081177 C-0.08776053 26.82550876 -0.07520668 23.85028036 -0.0625 20.875 C-0.05748603 18.86067817 -0.05292295 16.84635516 -0.04882812 14.83203125 C-0.0377885 9.88799198 -0.02051849 4.94400865 0 0 Z " fill="#2B2836" transform="translate(661,740)"/>
<path d="M0 0 C-1.98 0.66 -3.96 1.32 -6 2 C-5.67 2.66 -5.34 3.32 -5 4 C-5.33 5.32 -5.66 6.64 -6 8 C-9.3 7.67 -12.6 7.34 -16 7 C-16 6.34 -16 5.68 -16 5 C-17.65 5 -19.3 5 -21 5 C-18.28432704 2.28432704 -15.23593892 1.75968758 -11.625 0.8125 C-10.95210937 0.62236328 -10.27921875 0.43222656 -9.5859375 0.23632812 C-6.09905932 -0.69373485 -3.42363738 -1.37823351 0 0 Z " fill="#ECB043" transform="translate(850,488)"/>
<path d="M0 0 C3.3 0 6.6 0 10 0 C9.01 0.66 8.02 1.32 7 2 C9.97 2.33 12.94 2.66 16 3 C15.67 3.66 15.34 4.32 15 5 C11.37 5 7.74 5 4 5 C4.33 7.64 4.66 10.28 5 13 C6.32 13.33 7.64 13.66 9 14 C7.35 14 5.7 14 4 14 C2.68 9.38 1.36 4.76 0 0 Z " fill="#F0B853" transform="translate(969,360)"/>
<path d="M0 0 C0.74830078 0.58007812 0.74830078 0.58007812 1.51171875 1.171875 C7.91469832 5.81604689 14.3905841 8.00061715 22 10 C19.62383533 12.37616467 17.64650479 13.04068181 14.5 14.1875 C13.5203125 14.55230469 12.540625 14.91710937 11.53125 15.29296875 C9 16 9 16 7 15 C10 13 10 13 13 13 C13 11.68 13 10.36 13 9 C12.34 8.95875 11.68 8.9175 11 8.875 C6.67334212 7.61305812 3.28163211 5.06991391 0 2 C0 1.34 0 0.68 0 0 Z " fill="#ECB859" transform="translate(581,224)"/>
<path d="M0 0 C0 0.99 0 1.98 0 3 C-1.31787285 4.02028865 -2.65210653 5.01971384 -4 6 C-4.33 6.99 -4.66 7.98 -5 9 C-4.01 9 -3.02 9 -2 9 C0.1875 12 0.1875 12 2 15 C1.67 15.66 1.34 16.32 1 17 C0.175 16.236875 -0.65 15.47375 -1.5 14.6875 C-5.04416068 11.70294364 -8.62110717 10.43446489 -13 9 C-13 8.34 -13 7.68 -13 7 C-12.39671875 6.74605469 -11.7934375 6.49210938 -11.171875 6.23046875 C-5.24324364 3.70431624 -5.24324364 3.70431624 0 0 Z " fill="#F0B64B" transform="translate(977,536)"/>
<path d="M0 0 C0.33 1.32 0.66 2.64 1 4 C0.34 4 -0.32 4 -1 4 C0.22934015 7.68802044 1.93859378 8.72356973 5 11 C4.67 11.66 4.34 12.32 4 13 C3.195625 12.2575 2.39125 11.515 1.5625 10.75 C-2.21282929 7.57220484 -6.44815916 5.81062113 -11 4 C-8.6870518 1.6870518 -7.52095125 1.50419025 -4.375 0.875 C-3.55773437 0.70742188 -2.74046875 0.53984375 -1.8984375 0.3671875 C-1.27195312 0.24601562 -0.64546875 0.12484375 0 0 Z " fill="#ECB14B" transform="translate(516,305)"/>
<path d="M0 0 C4.21486705 0.5582426 7.60968539 1.53262732 11.44140625 3.36328125 C12.43720703 3.83830078 13.43300781 4.31332031 14.45898438 4.80273438 C15.48314453 5.30095703 16.50730469 5.79917969 17.5625 6.3125 C18.59052734 6.79912109 19.61855469 7.28574219 20.67773438 7.78710938 C25.53002928 10.12363246 30.00026835 12.31534568 34 16 C30.44642068 15.42606224 27.73495119 14.50987705 24.6015625 12.75 C23.79203125 12.3065625 22.9825 11.863125 22.1484375 11.40625 C20.47210375 10.4720702 18.79760472 9.53459015 17.125 8.59375 C12.25217186 5.93303114 8.50018453 4.57634534 3 4 C1.0625 1.9375 1.0625 1.9375 0 0 Z " fill="#7360B7" transform="translate(832,235)"/>
<path d="M0 0 C0.33 0.66 0.66 1.32 1 2 C0.16723633 4.10375977 0.16723633 4.10375977 -1.16796875 6.69140625 C-1.64943359 7.63693359 -2.13089844 8.58246094 -2.62695312 9.55664062 C-3.14193359 10.54857422 -3.65691406 11.54050781 -4.1875 12.5625 C-5.18293767 14.5003026 -6.17645137 16.43909483 -7.16796875 18.37890625 C-7.65056152 19.32008301 -8.1331543 20.26125977 -8.63037109 21.23095703 C-10.2696668 24.54519802 -11.73088996 27.9156034 -13.1340332 31.33569336 C-14 33 -14 33 -16 34 C-15.37058754 29.68489345 -13.83209879 26.30425876 -11.875 22.421875 C-11.56804199 21.80983215 -11.26108398 21.19778931 -10.94482422 20.56719971 C-10.29871004 19.28166408 -9.64973107 17.99756472 -8.99804688 16.71484375 C-7.99761105 14.7452969 -7.00590199 12.77154615 -6.015625 10.796875 C-1.16376777 1.16376777 -1.16376777 1.16376777 0 0 Z " fill="#0C0B11" transform="translate(659,723)"/>
<path d="M0 0 C0.72509766 -0.01224609 1.45019531 -0.02449219 2.19726562 -0.03710938 C6.01743278 -0.04759474 8.95185611 0.03889658 12.1875 2.1875 C5.93284844 3.32470937 -0.47039812 3.75530578 -6.8125 3.1875 C-7.4725 2.5275 -8.1325 1.8675 -8.8125 1.1875 C-6.78557871 -0.83942129 -2.77501392 0.00242783 0 0 Z " fill="#F2B845" transform="translate(688.8125,544.8125)"/>
<path d="M0 0 C0.33 0.99 0.66 1.98 1 3 C2.65 3 4.3 3 6 3 C3.06729118 4.5613959 0.17931727 5.66538899 -3 6.625 C-3.845625 6.88539063 -4.69125 7.14578125 -5.5625 7.4140625 C-8 8 -8 8 -12 8 C-12 7.34 -12 6.68 -12 6 C-8.04 4.02 -4.08 2.04 0 0 Z " fill="#483B76" transform="translate(827,472)"/>
<path d="M0 0 C5.2740349 1.39606806 7.96154747 4.69621929 11 9 C12.48811683 11.62366445 13.74595182 14.25074054 15 17 C15.66 16.01 16.32 15.02 17 14 C16.25 21.75 16.25 21.75 14 24 C13.70867188 23.07058594 13.41734375 22.14117187 13.1171875 21.18359375 C10.76275992 14.08329172 8.58069221 8.19949739 3 3 C1.99883653 2.00116482 0.99852181 1.00147601 0 0 Z " fill="#EDBE67" transform="translate(559,240)"/>
<path d="M0 0 C2.48719271 2.91974796 3.58572305 5.16793818 4 9 C3 10 3 10 0.77514648 10.11352539 C-0.18319092 10.10828857 -1.14152832 10.10305176 -2.12890625 10.09765625 C-3.68061523 10.09282227 -3.68061523 10.09282227 -5.26367188 10.08789062 C-6.35228516 10.07951172 -7.44089844 10.07113281 -8.5625 10.0625 C-10.2012207 10.05573242 -10.2012207 10.05573242 -11.87304688 10.04882812 C-14.58208495 10.03699826 -17.29101599 10.02051543 -20 10 C-20.33 9.34 -20.66 8.68 -21 8 C-14.4 8 -7.8 8 -1 8 C0.16169042 4.0404226 0.16169042 4.0404226 0 0 Z " fill="#4C407A" transform="translate(601,489)"/>
<path d="M0 0 C0.66 0.33 1.32 0.66 2 1 C-1.25179812 3.21713508 -4.4213696 5.34832443 -8 7 C-4.535 8.485 -4.535 8.485 -1 10 C-4.77865693 11.25955231 -6.03411786 10.48087189 -9.6875 9.0625 C-10.68136719 8.68222656 -11.67523437 8.30195313 -12.69921875 7.91015625 C-13.83810547 7.45962891 -13.83810547 7.45962891 -15 7 C-12.48397814 4.48397814 -10.32111136 3.99815529 -6.9375 2.9375 C-3.1759587 1.99691238 -3.1759587 1.99691238 0 0 Z " fill="#E4B660" transform="translate(559,228)"/>
<path d="M0 0 C1.61691079 3.06779949 2.84020691 6.17105148 4 9.4375 C5.26478621 12.98977064 6.57985903 16.50670681 8 20 C4.02502456 16.59287819 2.13206212 12.67239145 0 8 C-0.99 9.32 -1.98 10.64 -3 12 C-2.69230293 10.18667846 -2.37870936 8.37435655 -2.0625 6.5625 C-1.80146484 5.04849609 -1.80146484 5.04849609 -1.53515625 3.50390625 C-1 1 -1 1 0 0 Z " fill="#E6B968" transform="translate(573,204)"/>
<path d="M0 0 C0 0.99 0 1.98 0 3 C0.66 3.33 1.32 3.66 2 4 C-1.96 4.66 -5.92 5.32 -10 6 C-5.33333333 -1.77777778 -5.33333333 -1.77777778 0 0 Z " fill="#574797" transform="translate(836,470)"/>
<path d="M0 0 C0.66 0.33 1.32 0.66 2 1 C-1.2129242 2.99056356 -4.4285579 4.97628999 -7.65234375 6.94921875 C-9.54602858 8.10929405 -11.43658903 9.27461671 -13.31640625 10.45703125 C-15.125 11.5625 -15.125 11.5625 -18 13 C-18.99 12.67 -19.98 12.34 -21 12 C-20.22914063 11.60167969 -19.45828125 11.20335937 -18.6640625 10.79296875 C-17.66117188 10.26316406 -16.65828125 9.73335938 -15.625 9.1875 C-14.62726562 8.66542969 -13.62953125 8.14335937 -12.6015625 7.60546875 C-9.77123883 6.10835316 -9.77123883 6.10835316 -8 3 C-6.34385343 2.61781233 -4.67542976 2.28604898 -3 2 C-2.01 1.34 -1.02 0.68 0 0 Z " fill="#E9B75B" transform="translate(997,454)"/>
<path d="M0 0 C2.00993705 2.00993705 2.89940919 3.59211232 4.125 6.125 C4.47820312 6.84945312 4.83140625 7.57390625 5.1953125 8.3203125 C5.46085937 8.87460937 5.72640625 9.42890625 6 10 C6.99 10 7.98 10 9 10 C9.12375 11.1446875 9.12375 11.1446875 9.25 12.3125 C10.14615794 15.52373261 11.21611025 16.29374499 14 18 C13.67 18.66 13.34 19.32 13 20 C6.70772954 15.28470055 2.70912183 10.45008504 0 3 C0 2.01 0 1.02 0 0 Z " fill="#130D2F" transform="translate(1031,743)"/>
<path d="M0 0 C0 0.66 0 1.32 0 2 C-2.8941856 2.53195312 -5.78971515 3.05086335 -8.6875 3.5625 C-9.50412109 3.71396484 -10.32074219 3.86542969 -11.16210938 4.02148438 C-15.38147633 4.75603004 -18.80883464 5.28893273 -23 4 C-23 3.67 -23 3.34 -23 3 C-19.91747911 2.49490361 -16.83386475 1.99682001 -13.75 1.5 C-12.87730469 1.35691406 -12.00460937 1.21382812 -11.10546875 1.06640625 C-10.26113281 0.93105469 -9.41679688 0.79570313 -8.546875 0.65625 C-7.77182617 0.53056641 -6.99677734 0.40488281 -6.19824219 0.27539062 C-4 0 -4 0 0 0 Z " fill="#301F13" transform="translate(762,538)"/>
<path d="M0 0 C0.66 0 1.32 0 2 0 C2.50512244 1.60256108 3.00391627 3.20711792 3.5 4.8125 C3.7784375 5.70582031 4.056875 6.59914063 4.34375 7.51953125 C5 10 5 10 5 13 C4.34 11.68 3.68 10.36 3 9 C1.35 9.33 -0.3 9.66 -2 10 C-1.34 6.7 -0.68 3.4 0 0 Z " fill="#DFAF58" transform="translate(982,523)"/>
<path d="M0 0 C0.93779297 0.04833984 1.87558594 0.09667969 2.84179688 0.14648438 C4.30649414 0.2305957 4.30649414 0.2305957 5.80078125 0.31640625 C6.78884766 0.36861328 7.77691406 0.42082031 8.79492188 0.47460938 C11.23469801 0.60425931 13.6740623 0.73922367 16.11328125 0.87890625 C16.11328125 1.20890625 16.11328125 1.53890625 16.11328125 1.87890625 C14.8603125 1.92789063 13.60734375 1.976875 12.31640625 2.02734375 C10.66534304 2.10239208 9.01430244 2.17793902 7.36328125 2.25390625 C6.12578125 2.3003125 6.12578125 2.3003125 4.86328125 2.34765625 C4.0640625 2.38632812 3.26484375 2.425 2.44140625 2.46484375 C1.3416748 2.5119751 1.3416748 2.5119751 0.21972656 2.56005859 C-2.13594793 2.91663148 -3.82122466 3.71553508 -5.88671875 4.87890625 C-6.54671875 3.55890625 -7.20671875 2.23890625 -7.88671875 0.87890625 C-4.85537491 -0.1315417 -3.14275932 -0.17142324 0 0 Z " fill="#1D1113" transform="translate(577.88671875,550.12109375)"/>
<path d="M0 0 C0.66 0.33 1.32 0.66 2 1 C-1.17797087 4.45036837 -3.58892835 6.45612492 -8 8 C-9.299375 8.8353125 -9.299375 8.8353125 -10.625 9.6875 C-11.40875 10.120625 -12.1925 10.55375 -13 11 C-13.99 10.67 -14.98 10.34 -16 10 C-13.38321437 8.29948946 -10.75537761 6.61689493 -8.125 4.9375 C-7.37863281 4.45216797 -6.63226562 3.96683594 -5.86328125 3.46679688 C-5.14785156 3.01240234 -4.43242188 2.55800781 -3.6953125 2.08984375 C-3.03547363 1.66566162 -2.37563477 1.24147949 -1.69580078 0.80444336 C-1.13618652 0.53897705 -0.57657227 0.27351074 0 0 Z " fill="#180E0F" transform="translate(979,318)"/>
<path d="M0 0 C-3.05191165 2.67835203 -4.89051401 3.37471451 -8.9375 3.25 C-9.81019531 3.22421875 -10.68289063 3.1984375 -11.58203125 3.171875 C-14.12258014 2.99128671 -16.53663979 2.65689606 -19 2 C-19 1.67 -19 1.34 -19 1 C-12.62641289 0.03794912 -6.44070471 -0.10655578 0 0 Z " fill="#DEA133" transform="translate(990,360)"/>
<path d="M0 0 C-2.31 1.65 -4.62 3.3 -7 5 C-8.65 3.68 -10.3 2.36 -12 1 C-4.5 -1.125 -4.5 -1.125 0 0 Z " fill="#3B3064" transform="translate(795,559)"/>
<path d="M0 0 C0.33 0 0.66 0 1 0 C1.33 5.61 1.66 11.22 2 17 C0.35 17.66 -1.3 18.32 -3 19 C-3 18.01 -3 17.02 -3 16 C-2.01 16 -1.02 16 0 16 C-0.08378906 14.92878906 -0.16757812 13.85757812 -0.25390625 12.75390625 C-0.35704896 11.35679134 -0.45989843 9.95965476 -0.5625 8.5625 C-0.61857422 7.85544922 -0.67464844 7.14839844 -0.73242188 6.41992188 C-0.86190993 4.61572163 -0.93521608 2.80768048 -1 1 C-0.67 0.67 -0.34 0.34 0 0 Z " fill="#EEBE66" transform="translate(540,433)"/>
<path d="M0 0 C1.60597325 0.45196245 3.20972508 0.91182327 4.8125 1.375 C6.15248047 1.75785156 6.15248047 1.75785156 7.51953125 2.1484375 C10 3 10 3 13 5 C8.545 6.485 8.545 6.485 4 8 C4.33 7.34 4.66 6.68 5 6 C5.66 6 6.32 6 7 6 C7 5.34 7 4.68 7 4 C6.1028125 3.7834375 6.1028125 3.7834375 5.1875 3.5625 C3.43849596 3.1127561 1.71322977 2.57107659 0 2 C0 1.34 0 0.68 0 0 Z " fill="#E9B85D" transform="translate(535,304)"/>
<path d="M0 0 C-0.6171875 1.953125 -0.6171875 1.953125 -2 4 C-4.8203125 4.609375 -4.8203125 4.609375 -8.125 4.75 C-9.22070312 4.80671875 -10.31640625 4.8634375 -11.4453125 4.921875 C-12.28835938 4.94765625 -13.13140625 4.9734375 -14 5 C-9.43596559 1.4780707 -5.87603248 -0.33577328 0 0 Z " fill="#191235" transform="translate(689,267)"/>
<path d="M0 0 C-1.98 0.99 -1.98 0.99 -4 2 C-3.01 2.66 -2.02 3.32 -1 4 C-7.93 3.505 -7.93 3.505 -15 3 C-5 -2 -5 -2 0 0 Z " fill="#2C1E13" transform="translate(830,524)"/>
<path d="M0 0 C0.66 0 1.32 0 2 0 C2.67154933 1.28913487 3.33708859 2.58140204 4 3.875 C4.37125 4.59429688 4.7425 5.31359375 5.125 6.0546875 C6 8 6 8 6 10 C6.66 10 7.32 10 8 10 C7.67 11.32 7.34 12.64 7 14 C3.94998169 10.33997803 0 4.92148529 0 0 Z " fill="#E5E3E2" transform="translate(615,754)"/>
<path d="M0 0 C5.94 0 11.88 0 18 0 C18 0.33 18 0.66 18 1 C14.7 1 11.4 1 8 1 C8 1.66 8 2.32 8 3 C6.35 3 4.7 3 3 3 C3 2.34 3 1.68 3 1 C2.01 0.67 1.02 0.34 0 0 Z " fill="#EFBA4E" transform="translate(653,520)"/>
<path d="M0 0 C-3.25448097 2.16965398 -6.5253585 3.36143262 -10.1875 4.625 C-10.84169922 4.85445313 -11.49589844 5.08390625 -12.16992188 5.3203125 C-13.77864135 5.88395144 -15.38914977 6.44247984 -17 7 C-17 6.34 -17 5.68 -17 5 C-11.40390209 2.06871062 -6.4255651 -0.37797442 0 0 Z " fill="#5E4F9C" transform="translate(721,422)"/>
<path d="M0 0 C6.13602988 1.41600689 10.26698362 5.0663375 15 9 C14.34 9.66 13.68 10.32 13 11 C12.56429688 10.61328125 12.12859375 10.2265625 11.6796875 9.828125 C8.74229013 7.2594918 5.84286844 4.80917028 2.5625 2.6875 C1.716875 2.130625 0.87125 1.57375 0 1 C0 0.67 0 0.34 0 0 Z " fill="#201410" transform="translate(1031,369)"/>
<path d="M0 0 C-0.33 1.32 -0.66 2.64 -1 4 C-4.3 4.33 -7.6 4.66 -11 5 C-4.33333333 0 -4.33333333 0 0 0 Z " fill="#5A4A99" transform="translate(762,395)"/>
<path d="M0 0 C0 3.39593478 -0.52165948 4.06619881 -2.5 6.6875 C-2.9640625 7.31011719 -3.428125 7.93273437 -3.90625 8.57421875 C-4.2671875 9.04472656 -4.628125 9.51523437 -5 10 C-5.66 8.68 -6.32 7.36 -7 6 C-4.69 4.02 -2.38 2.04 0 0 Z " fill="#171119" transform="translate(967,305)"/>
<path d="M0 0 C0.66 0.33 1.32 0.66 2 1 C1.67 1.66 1.34 2.32 1 3 C0.34 3 -0.32 3 -1 3 C-1.33 4.98 -1.66 6.96 -2 9 C-2.66 9 -3.32 9 -4 9 C-5.63676257 10.9600281 -5.63676257 10.9600281 -7 13 C-6.65986985 7.55791766 -3.29703472 4.06331802 0 0 Z " fill="#1B1112" transform="translate(584,243)"/>
<path d="M0 0 C0.66 0.33 1.32 0.66 2 1 C2 2.98 2 4.96 2 7 C1.67 7 1.34 7 1 7 C0.67 8.98 0.34 10.96 0 13 C-0.33 13 -0.66 13 -1 13 C-1.22245393 11.39773045 -1.42746669 9.79303233 -1.625 8.1875 C-1.74101563 7.29417969 -1.85703125 6.40085937 -1.9765625 5.48046875 C-2 3 -2 3 0 0 Z " fill="#252330" transform="translate(661,718)"/>
<path d="M0 0 C5.75 -0.125 5.75 -0.125 8 1 C8 1.99 8 2.98 8 4 C5 5 5 5 2.3125 3.6875 C1.549375 3.130625 0.78625 2.57375 0 2 C0 1.34 0 0.68 0 0 Z " fill="#4C3D84" transform="translate(648,574)"/>
<path d="M0 0 C0 0.99 0 1.98 0 3 C-1.828125 4.60546875 -1.828125 4.60546875 -4.25 6.1875 C-5.03890625 6.71730469 -5.8278125 7.24710938 -6.640625 7.79296875 C-9 9 -9 9 -13 9 C-13 8.34 -13 7.68 -13 7 C-12.39671875 6.74605469 -11.7934375 6.49210938 -11.171875 6.23046875 C-5.24324364 3.70431624 -5.24324364 3.70431624 0 0 Z " fill="#E7BB68" transform="translate(977,536)"/>
<path d="M0 0 C-0.33 0.99 -0.66 1.98 -1 3 C-5.95 3 -10.9 3 -16 3 C-10.42798997 0.21399498 -6.2067169 -0.12170033 0 0 Z " fill="#E6A22C" transform="translate(754,537)"/>
<path d="M0 0 C0.33 0 0.66 0 1 0 C1.09796875 0.59167969 1.1959375 1.18335938 1.296875 1.79296875 C2.25769801 6.87042139 3.2985201 10.17513744 7 14 C4 14 4 14 1.8125 12.625 C-0.94442514 8.63221187 -0.32359846 4.71015531 0 0 Z " fill="#E8E3DE" transform="translate(988,282)"/>
<path d="M0 0 C1.32 0.33 2.64 0.66 4 1 C5.88594563 5.04131206 6.10292424 6.58830306 5 11 C3.35 7.37 1.7 3.74 0 0 Z " fill="#211E27" transform="translate(617,711)"/>
<path d="M0 0 C0.66 0.99 1.32 1.98 2 3 C2.99 2.67 3.98 2.34 5 2 C5 3.98 5 5.96 5 8 C2.5625 7.25 2.5625 7.25 0 6 C-0.875 4 -0.875 4 -1 2 C-0.67 1.34 -0.34 0.68 0 0 Z " fill="#2C1B14" transform="translate(981,559)"/>
<path d="M0 0 C0.33 0.99 0.66 1.98 1 3 C-1.64 4.98 -4.28 6.96 -7 9 C-7.66 7.68 -8.32 6.36 -9 5 C-8.43410156 4.80664062 -7.86820313 4.61328125 -7.28515625 4.4140625 C-6.55167969 4.15367187 -5.81820312 3.89328125 -5.0625 3.625 C-3.96615234 3.24214844 -3.96615234 3.24214844 -2.84765625 2.8515625 C-0.81317884 2.14728587 -0.81317884 2.14728587 0 0 Z " fill="#594A99" transform="translate(615,443)"/>
<path d="M0 0 C1.98 0 3.96 0 6 0 C3.84658594 2.34917898 1.78332063 3.82443004 -1.0625 5.25 C-1.75472656 5.60578125 -2.44695313 5.9615625 -3.16015625 6.328125 C-3.76730469 6.54984375 -4.37445312 6.7715625 -5 7 C-5.66 6.67 -6.32 6.34 -7 6 C-2.25 3 -2.25 3 0 3 C0 2.01 0 1.02 0 0 Z " fill="#EFBD5B" transform="translate(965,323)"/>
<path d="M0 0 C-1.375 2.125 -1.375 2.125 -4 4 C-7.44750264 3.75143398 -10.68000518 2.93770846 -14 2 C-14 1.67 -14 1.34 -14 1 C-9.23692563 0.04738513 -4.8333472 -0.08333357 0 0 Z " fill="#F3C45C" transform="translate(717,515)"/>
<path d="M0 0 C2.50298434 2.93828597 3.46930939 5.17902761 4 9 C2.35 9 0.7 9 -1 9 C-0.835 8.2575 -0.67 7.515 -0.5 6.75 C0.11925696 3.80993422 0.11925696 3.80993422 0 0 Z " fill="#55458F" transform="translate(601,489)"/>
<path d="M0 0 C1.99097846 2.98646769 2.94124926 5.59687262 4 9 C2.02 9.99 2.02 9.99 0 11 C0 7.37 0 3.74 0 0 Z " fill="#534487" transform="translate(948,415)"/>
<path d="M0 0 C0.33 0.99 0.66 1.98 1 3 C-1.64 5.97 -4.28 8.94 -7 12 C-7.33 11.01 -7.66 10.02 -8 9 C-5.36 6.03 -2.72 3.06 0 0 Z " fill="#604F9C" transform="translate(938,390)"/>
<path d="M0 0 C0.556875 0.70125 1.11375 1.4025 1.6875 2.125 C4.09124732 5.11344261 6.53810432 8.05940238 9 11 C8.01 11 7.02 11 6 11 C4.39453125 9.35546875 4.39453125 9.35546875 2.8125 7.1875 C2.28269531 6.47980469 1.75289063 5.77210938 1.20703125 5.04296875 C0 3 0 3 0 0 Z " fill="#221610" transform="translate(474,512)"/>
<path d="M0 0 C0 0.66 0 1.32 0 2 C-7.42857143 2.28571429 -7.42857143 2.28571429 -11 0 C-7.01803543 -1.05404945 -4.01804691 -0.84098656 0 0 Z " fill="#F1BA4E" transform="translate(990,374)"/>
<path d="M0 0 C1.89213369 2.38573379 3.02391783 4.07175348 4 7 C3.34 7.66 2.68 8.32 2 9 C1.67 8.01 1.34 7.02 1 6 C-0.99665314 4.31461399 -0.99665314 4.31461399 -3 3 C-2.01 2.67 -1.02 2.34 0 2 C0 1.34 0 0.68 0 0 Z " fill="#4A3D7F" transform="translate(916,301)"/>
<path d="M0 0 C-0.33 1.65 -0.66 3.3 -1 5 C-1.33 4.01 -1.66 3.02 -2 2 C-3.65 2.66 -5.3 3.32 -7 4 C-7.66 3.34 -8.32 2.68 -9 2 C-5.62902617 0.50178941 -3.79557881 0 0 0 Z " fill="#483D79" transform="translate(928,509)"/>
<path d="M0 0 C0 0.99 0 1.98 0 3 C-0.99 3.66 -1.98 4.32 -3 5 C-3.99 4.67 -4.98 4.34 -6 4 C-6.33 3.34 -6.66 2.68 -7 2 C-4.35261084 0.5393715 -3.10551666 0 0 0 Z " fill="#E9AF44" transform="translate(858,484)"/>
<path d="M0 0 C2.68 5.36 2.68 5.36 3 8 C2.0625 10.75 2.0625 10.75 1 13 C0.67 13 0.34 13 0 13 C0 8.71 0 4.42 0 0 Z " fill="#191935" transform="translate(1052,389)"/>
<path d="M0 0 C0.66 0.66 1.32 1.32 2 2 C1.34 3.65 0.68 5.3 0 7 C-0.66 7 -1.32 7 -2 7 C-2 8.65 -2 10.3 -2 12 C-2.33 12 -2.66 12 -3 12 C-2.88541307 10.56163249 -2.75790884 9.12429034 -2.625 7.6875 C-2.55539062 6.88699219 -2.48578125 6.08648437 -2.4140625 5.26171875 C-2 3 -2 3 0 0 Z " fill="#1B1B31" transform="translate(512,478)"/>
<path d="M0 0 C2.475 0.99 2.475 0.99 5 2 C4.01 2.495 4.01 2.495 3 3 C3 3.66 3 4.32 3 5 C1.68 5.33 0.36 5.66 -1 6 C-0.67 4.02 -0.34 2.04 0 0 Z " fill="#F2B138" transform="translate(994,542)"/>
<path d="M0 0 C-0.33 0.99 -0.66 1.98 -1 3 C-3.64 2.67 -6.28 2.34 -9 2 C-9 1.67 -9 1.34 -9 1 C-5.846632 0.29925156 -3.27275026 0 0 0 Z " fill="#26252E" transform="translate(980,282)"/>
<path d="M0 0 C-0.66 1.32 -1.32 2.64 -2 4 C-3.32 4 -4.64 4 -6 4 C-6 3.34 -6 2.68 -6 2 C-2.25 0 -2.25 0 0 0 Z " fill="#5C4C9F" transform="translate(751,400)"/>
<path d="M0 0 C1 3 1 3 0.25 5.5625 C-1 8 -1 8 -4 10 C-2.8905928 6.51329166 -1.73662334 3.22515763 0 0 Z " fill="#E29F2C" transform="translate(527,289)"/>
</svg>
